STARTFONT 2.1
COMMENT
COMMENT Converted from OpenType font "CamingoCode-Bold.ttf" by "otf2bdf 3.0".
COMMENT
FONT -FreeType-CamingoCode-Bold-R-Normal--21-160-96-96-P-96-ISO10646-1
SIZE 16 96 96
FONTBOUNDINGBOX 12 27 0 -5
STARTPROPERTIES 19
FOUNDRY "FreeType"
FAMILY_NAME "CamingoCode"
WEIGHT_NAME "Bold"
SLANT "R"
SETWIDTH_NAME "Normal"
ADD_STYLE_NAME ""
PIXEL_SIZE 21
POINT_SIZE 160
RESOLUTION_X 96
RESOLUTION_Y 96
SPACING "P"
AVERAGE_WIDTH 96
CHARSET_REGISTRY "ISO10646"
CHARSET_ENCODING "1"
FONT_ASCENT 22
FONT_DESCENT 5
COPYRIGHT "Copyright (c) 2006-2013 by Jan Fromm. All rights reserved."
_OTF_FONTFILE "CamingoCode-Bold.ttf"
_OTF_PSNAME "CamingoCode-Bold"
ENDPROPERTIES
CHARS 450
STARTCHAR 0000
ENCODING 0
SWIDTH 562 0
DWIDTH 12 0
BBX 0 0 0 0
BITMAP
ENDCHAR
STARTCHAR 000D
ENCODING 13
SWIDTH 562 0
DWIDTH 12 0
BBX 0 0 0 0
BITMAP
ENDCHAR
STARTCHAR 0020
ENCODING 32
SWIDTH 562 0
DWIDTH 12 0
BBX 0 0 0 0
BITMAP
ENDCHAR
STARTCHAR 0021
ENCODING 33
SWIDTH 562 0
DWIDTH 12 0
BBX 3 15 4 0
BITMAP
E0
E0
E0
60
60
60
60
60
60
00
00
00
E0
E0
E0
ENDCHAR
STARTCHAR 0022
ENCODING 34
SWIDTH 562 0
DWIDTH 12 0
BBX 7 6 2 9
BITMAP
E6
66
66
66
66
66
ENDCHAR
STARTCHAR 0023
ENCODING 35
SWIDTH 562 0
DWIDTH 12 0
BBX 11 14 0 0
BITMAP
08C0
08C0
1880
1880
7FE0
7FE0
1180
1180
FFC0
FFC0
3100
3300
2300
2300
ENDCHAR
STARTCHAR 0024
ENCODING 36
SWIDTH 562 0
DWIDTH 12 0
BBX 10 18 1 -2
BITMAP
0300
0200
3F80
7F80
E600
E600
E400
7C00
3E00
0F80
0B80
1980
19C0
D980
FF80
7E00
3000
3000
ENDCHAR
STARTCHAR 0025
ENCODING 37
SWIDTH 562 0
DWIDTH 12 0
BBX 10 14 1 0
BITMAP
7080
91C0
9100
9300
9200
F600
0C00
0800
1B80
36C0
26C0
66C0
C6C0
8380
ENDCHAR
STARTCHAR 0026
ENCODING 38
SWIDTH 562 0
DWIDTH 12 0
BBX 10 15 1 0
BITMAP
3E00
7F00
6300
6300
6100
7000
3000
78C0
FCC0
CEC0
C780
C380
E380
FFC0
3C80
ENDCHAR
STARTCHAR 0027
ENCODING 39
SWIDTH 562 0
DWIDTH 12 0
BBX 2 6 5 9
BITMAP
C0
C0
C0
C0
C0
C0
ENDCHAR
STARTCHAR 0028
ENCODING 40
SWIDTH 562 0
DWIDTH 12 0
BBX 7 21 3 -4
BITMAP
0C
0E
18
38
30
70
60
60
E0
E0
E0
E0
E0
60
60
70
30
38
18
0C
0E
ENDCHAR
STARTCHAR 0029
ENCODING 41
SWIDTH 562 0
DWIDTH 12 0
BBX 6 21 2 -4
BITMAP
40
E0
70
30
38
18
1C
0C
0C
0C
0C
0C
0C
0C
1C
18
38
30
70
E0
40
ENDCHAR
STARTCHAR 002A
ENCODING 42
SWIDTH 562 0
DWIDTH 12 0
BBX 10 9 1 4
BITMAP
0C00
4C80
E980
7B40
0C00
7B00
E9C0
4C80
0C00
ENDCHAR
STARTCHAR 002B
ENCODING 43
SWIDTH 562 0
DWIDTH 12 0
BBX 10 10 1 1
BITMAP
0C00
0C00
0C00
0C00
FFC0
FFC0
0C00
0C00
0C00
0C00
ENDCHAR
STARTCHAR 002C
ENCODING 44
SWIDTH 562 0
DWIDTH 12 0
BBX 5 7 2 -4
BITMAP
38
38
38
38
70
E0
80
ENDCHAR
STARTCHAR 002D
ENCODING 45
SWIDTH 562 0
DWIDTH 12 0
BBX 7 2 2 5
BITMAP
FE
FE
ENDCHAR
STARTCHAR 002E
ENCODING 46
SWIDTH 562 0
DWIDTH 12 0
BBX 3 3 4 0
BITMAP
E0
E0
E0
ENDCHAR
STARTCHAR 002F
ENCODING 47
SWIDTH 562 0
DWIDTH 12 0
BBX 9 17 1 -2
BITMAP
0180
0380
0300
0300
0600
0600
0E00
0C00
1C00
1800
3800
3000
3000
6000
6000
E000
C000
ENDCHAR
STARTCHAR 0030
ENCODING 48
SWIDTH 562 0
DWIDTH 12 0
BBX 10 14 1 0
BITMAP
3F00
7F80
E380
C780
C7C0
C5C0
CCC0
C8C0
D9C0
D1C0
F180
F180
7F80
3E00
ENDCHAR
STARTCHAR 0031
ENCODING 49
SWIDTH 562 0
DWIDTH 12 0
BBX 10 14 1 0
BITMAP
0E00
3E00
7E00
EE00
4E00
0E00
0E00
0E00
0E00
0E00
0E00
0E00
FFC0
FFC0
ENDCHAR
STARTCHAR 0032
ENCODING 50
SWIDTH 562 0
DWIDTH 12 0
BBX 9 14 1 0
BITMAP
7E00
7F80
0380
0380
0380
0380
0700
0E00
0E00
1C00
3800
7000
FF80
FF80
ENDCHAR
STARTCHAR 0033
ENCODING 51
SWIDTH 562 0
DWIDTH 12 0
BBX 9 14 1 0
BITMAP
7E00
7F00
0380
0380
0380
0700
3C00
3F00
0380
0180
0180
0380
FF00
FE00
ENDCHAR
STARTCHAR 0034
ENCODING 52
SWIDTH 562 0
DWIDTH 12 0
BBX 10 14 1 0
BITMAP
0700
0F00
1F00
1B00
3B00
3300
6300
6300
C300
FFC0
FFC0
0300
0300
0300
ENDCHAR
STARTCHAR 0035
ENCODING 53
SWIDTH 562 0
DWIDTH 12 0
BBX 9 14 1 0
BITMAP
7F80
7F80
6000
6000
6000
7F00
7F80
0380
0180
0180
0180
0380
FF00
FE00
ENDCHAR
STARTCHAR 0036
ENCODING 54
SWIDTH 562 0
DWIDTH 12 0
BBX 9 14 1 0
BITMAP
1F80
3F80
7000
6000
6000
EF00
FF80
E180
E180
E180
6180
7380
7F00
3E00
ENDCHAR
STARTCHAR 0037
ENCODING 55
SWIDTH 562 0
DWIDTH 12 0
BBX 9 14 1 0
BITMAP
FF80
FF80
0180
0380
0300
0700
0700
0600
0E00
0C00
1C00
1C00
1800
3800
ENDCHAR
STARTCHAR 0038
ENCODING 56
SWIDTH 562 0
DWIDTH 12 0
BBX 10 14 1 0
BITMAP
3F00
7F80
6380
6180
7380
3F00
1E00
7F00
6380
E180
E1C0
E380
7F80
3E00
ENDCHAR
STARTCHAR 0039
ENCODING 57
SWIDTH 562 0
DWIDTH 12 0
BBX 9 14 1 0
BITMAP
3E00
7F00
E380
E180
E180
E380
7F80
3D80
0180
0180
0380
0700
FF00
FC00
ENDCHAR
STARTCHAR 003A
ENCODING 58
SWIDTH 562 0
DWIDTH 12 0
BBX 3 9 4 0
BITMAP
E0
E0
E0
00
00
00
E0
E0
E0
ENDCHAR
STARTCHAR 003B
ENCODING 59
SWIDTH 562 0
DWIDTH 12 0
BBX 5 13 2 -4
BITMAP
38
38
38
00
00
00
38
38
38
38
70
E0
80
ENDCHAR
STARTCHAR 003C
ENCODING 60
SWIDTH 562 0
DWIDTH 12 0
BBX 8 11 2 1
BITMAP
01
07
1E
78
E0
C0
E0
78
1E
07
01
ENDCHAR
STARTCHAR 003D
ENCODING 61
SWIDTH 562 0
DWIDTH 12 0
BBX 9 6 1 3
BITMAP
FF80
FF80
0000
0000
FF80
FF80
ENDCHAR
STARTCHAR 003E
ENCODING 62
SWIDTH 562 0
DWIDTH 12 0
BBX 8 11 2 0
BITMAP
80
E0
70
3C
0F
03
0F
3C
70
E0
80
ENDCHAR
STARTCHAR 003F
ENCODING 63
SWIDTH 562 0
DWIDTH 12 0
BBX 8 15 2 0
BITMAP
FE
FF
07
07
07
1E
38
30
30
00
00
00
30
78
30
ENDCHAR
STARTCHAR 0040
ENCODING 64
SWIDTH 562 0
DWIDTH 12 0
BBX 10 18 1 -3
BITMAP
1F00
3F80
71C0
60C0
C0C0
C7C0
CFC0
DCC0
D8C0
D8C0
D9C0
DFC0
CEC0
C000
E000
6000
7F00
1F00
ENDCHAR
STARTCHAR 0041
ENCODING 65
SWIDTH 562 0
DWIDTH 12 0
BBX 11 15 0 0
BITMAP
0F00
1F00
1B00
1B80
1B80
1980
3980
31C0
31C0
3FC0
7FC0
60C0
60E0
60E0
E060
ENDCHAR
STARTCHAR 0042
ENCODING 66
SWIDTH 562 0
DWIDTH 12 0
BBX 10 15 1 0
BITMAP
FF00
FF80
E380
E180
E180
E380
FE00
FF80
E1C0
E1C0
E1C0
E1C0
E380
FF80
FE00
ENDCHAR
STARTCHAR 0043
ENCODING 67
SWIDTH 562 0
DWIDTH 12 0
BBX 10 15 1 0
BITMAP
1FC0
3F80
7000
6000
E000
E000
E000
E000
E000
E000
E000
E000
7000
7F80
1FC0
ENDCHAR
STARTCHAR 0044
ENCODING 68
SWIDTH 562 0
DWIDTH 12 0
BBX 10 15 1 0
BITMAP
FE00
FF80
E380
E1C0
E1C0
E1C0
E1C0
E1C0
E1C0
E1C0
E1C0
E180
E380
FF00
FE00
ENDCHAR
STARTCHAR 0045
ENCODING 69
SWIDTH 562 0
DWIDTH 12 0
BBX 8 15 2 0
BITMAP
FF
FF
C0
C0
C0
C0
FF
FF
C0
C0
C0
C0
C0
FF
FF
ENDCHAR
STARTCHAR 0046
ENCODING 70
SWIDTH 562 0
DWIDTH 12 0
BBX 8 15 2 0
BITMAP
FF
FF
C0
C0
C0
C0
FF
FF
C0
C0
C0
C0
C0
C0
C0
ENDCHAR
STARTCHAR 0047
ENCODING 71
SWIDTH 562 0
DWIDTH 12 0
BBX 10 15 1 0
BITMAP
1F80
7F80
7000
E000
C000
C000
C7C0
C7C0
C1C0
C1C0
C1C0
E1C0
E1C0
7FC0
3F80
ENDCHAR
STARTCHAR 0048
ENCODING 72
SWIDTH 562 0
DWIDTH 12 0
BBX 9 15 1 0
BITMAP
E180
E180
E180
E180
E180
E180
FF80
FF80
E180
E180
E180
E180
E180
E180
E180
ENDCHAR
STARTCHAR 0049
ENCODING 73
SWIDTH 562 0
DWIDTH 12 0
BBX 9 15 1 0
BITMAP
FF80
FF80
0C00
0C00
0C00
0C00
0C00
0C00
0C00
0C00
0C00
0C00
0C00
FF80
FF80
ENDCHAR
STARTCHAR 004A
ENCODING 74
SWIDTH 562 0
DWIDTH 12 0
BBX 9 15 1 0
BITMAP
7F80
7F80
0380
0380
0380
0380
0380
0380
0380
0380
0380
0380
0300
FF00
FE00
ENDCHAR
STARTCHAR 004B
ENCODING 75
SWIDTH 562 0
DWIDTH 12 0
BBX 10 15 1 0
BITMAP
E1C0
E380
E380
E700
E600
EE00
FC00
FC00
FC00
EE00
E600
E700
E380
E380
E1C0
ENDCHAR
STARTCHAR 004C
ENCODING 76
SWIDTH 562 0
DWIDTH 12 0
BBX 8 15 2 0
BITMAP
C0
C0
C0
C0
C0
C0
C0
C0
C0
C0
C0
C0
C0
FF
FF
ENDCHAR
STARTCHAR 004D
ENCODING 77
SWIDTH 562 0
DWIDTH 12 0
BBX 11 15 0 0
BITMAP
71E0
71E0
79E0
79E0
7960
7B60
7B60
6F60
6F60
6F60
EE60
EE60
E060
E060
C060
ENDCHAR
STARTCHAR 004E
ENCODING 78
SWIDTH 562 0
DWIDTH 12 0
BBX 10 15 1 0
BITMAP
E1C0
F1C0
F1C0
F9C0
D9C0
D9C0
DDC0
CDC0
CDC0
CFC0
C7C0
C6C0
C7C0
C3C0
C3C0
ENDCHAR
STARTCHAR 004F
ENCODING 79
SWIDTH 562 0
DWIDTH 12 0
BBX 10 15 1 0
BITMAP
3E00
7F80
E380
E180
C1C0
C1C0
C1C0
C1C0
C1C0
C1C0
C1C0
E180
E380
7F00
3E00
ENDCHAR
STARTCHAR 0050
ENCODING 80
SWIDTH 562 0
DWIDTH 12 0
BBX 10 15 1 0
BITMAP
FF00
FF80
E1C0
E1C0
E1C0
E1C0
E1C0
FF80
FF00
E000
E000
E000
E000
E000
E000
ENDCHAR
STARTCHAR 0051
ENCODING 81
SWIDTH 562 0
DWIDTH 12 0
BBX 10 17 1 -2
BITMAP
3E00
7F80
E380
E180
C1C0
C1C0
C1C0
C1C0
C1C0
C1C0
C5C0
EF80
E780
7F00
3F80
0180
00C0
ENDCHAR
STARTCHAR 0052
ENCODING 82
SWIDTH 562 0
DWIDTH 12 0
BBX 10 15 1 0
BITMAP
FF00
FF80
E180
E1C0
E1C0
E180
FF80
FF00
EE00
E600
E700
E700
E380
E380
E1C0
ENDCHAR
STARTCHAR 0053
ENCODING 83
SWIDTH 562 0
DWIDTH 12 0
BBX 10 15 1 0
BITMAP
3F80
7F80
E000
C000
E000
F000
7C00
3F00
0F80
0380
01C0
01C0
0380
FF80
FE00
ENDCHAR
STARTCHAR 0054
ENCODING 84
SWIDTH 562 0
DWIDTH 12 0
BBX 11 15 0 0
BITMAP
FFE0
FFE0
0600
0600
0600
0600
0600
0600
0600
0600
0600
0600
0600
0600
0600
ENDCHAR
STARTCHAR 0055
ENCODING 85
SWIDTH 562 0
DWIDTH 12 0
BBX 10 15 1 0
BITMAP
E1C0
E1C0
E1C0
E1C0
E1C0
E1C0
E1C0
E1C0
E1C0
E1C0
E1C0
E180
E380
7F80
3E00
ENDCHAR
STARTCHAR 0056
ENCODING 86
SWIDTH 562 0
DWIDTH 12 0
BBX 11 15 0 0
BITMAP
E060
6060
60E0
70E0
70C0
30C0
31C0
39C0
3980
1980
1B80
1F80
1F00
0F00
0F00
ENDCHAR
STARTCHAR 0057
ENCODING 87
SWIDTH 562 0
DWIDTH 12 0
BBX 12 15 0 0
BITMAP
C070
C060
C060
CE60
EE60
6E60
6F60
6F60
6B60
6B60
7BE0
7BC0
79C0
79C0
79C0
ENDCHAR
STARTCHAR 0058
ENCODING 88
SWIDTH 562 0
DWIDTH 12 0
BBX 11 15 0 0
BITMAP
E0E0
70C0
31C0
39C0
3980
1F80
1F00
0F00
1F00
1B80
3B80
31C0
71C0
60E0
E0E0
ENDCHAR
STARTCHAR 0059
ENCODING 89
SWIDTH 562 0
DWIDTH 12 0
BBX 11 15 0 0
BITMAP
E060
60E0
70C0
31C0
3980
1B80
1F00
0F00
0F00
0E00
0E00
0E00
0E00
0E00
0E00
ENDCHAR
STARTCHAR 005A
ENCODING 90
SWIDTH 562 0
DWIDTH 12 0
BBX 10 15 1 0
BITMAP
FFC0
FFC0
0380
0300
0700
0E00
0E00
1C00
1800
3800
3000
7000
E000
FFC0
FFC0
ENDCHAR
STARTCHAR 005B
ENCODING 91
SWIDTH 562 0
DWIDTH 12 0
BBX 6 18 3 -3
BITMAP
FC
FC
C0
C0
C0
C0
C0
C0
C0
C0
C0
C0
C0
C0
C0
C0
FC
FC
ENDCHAR
STARTCHAR 005C
ENCODING 92
SWIDTH 562 0
DWIDTH 12 0
BBX 10 17 1 -2
BITMAP
E000
6000
7000
3000
3000
1800
1800
1C00
0C00
0E00
0600
0700
0300
0300
0180
0180
01C0
ENDCHAR
STARTCHAR 005D
ENCODING 93
SWIDTH 562 0
DWIDTH 12 0
BBX 6 18 2 -3
BITMAP
FC
FC
0C
0C
0C
0C
0C
0C
0C
0C
0C
0C
0C
0C
0C
0C
FC
FC
ENDCHAR
STARTCHAR 005E
ENCODING 94
SWIDTH 562 0
DWIDTH 12 0
BBX 10 7 1 8
BITMAP
1C00
1E00
3E00
3300
6300
6180
C1C0
ENDCHAR
STARTCHAR 005F
ENCODING 95
SWIDTH 562 0
DWIDTH 12 0
BBX 12 2 0 -4
BITMAP
FFF0
FFF0
ENDCHAR
STARTCHAR 0060
ENCODING 96
SWIDTH 562 0
DWIDTH 12 0
BBX 4 4 4 12
BITMAP
40
E0
70
20
ENDCHAR
STARTCHAR 0061
ENCODING 97
SWIDTH 562 0
DWIDTH 12 0
BBX 9 10 1 0
BITMAP
7F00
7F80
0380
0180
3F80
FF80
E380
C780
FD80
7980
ENDCHAR
STARTCHAR 0062
ENCODING 98
SWIDTH 562 0
DWIDTH 12 0
BBX 10 15 1 0
BITMAP
E000
E000
E000
E000
E000
EF00
FF80
F180
E1C0
E1C0
E1C0
E180
E380
FF80
FE00
ENDCHAR
STARTCHAR 0063
ENCODING 99
SWIDTH 562 0
DWIDTH 12 0
BBX 9 10 1 0
BITMAP
1F80
3F80
7000
6000
E000
E000
6000
7000
7F80
1F80
ENDCHAR
STARTCHAR 0064
ENCODING 100
SWIDTH 562 0
DWIDTH 12 0
BBX 9 15 1 0
BITMAP
0180
0180
0180
0180
0180
3D80
7F80
E380
E180
C180
C180
E380
E780
7D80
3980
ENDCHAR
STARTCHAR 0065
ENCODING 101
SWIDTH 562 0
DWIDTH 12 0
BBX 9 10 1 0
BITMAP
3F00
7F80
6180
E180
FF80
FF80
E000
E000
7F80
3F80
ENDCHAR
STARTCHAR 0066
ENCODING 102
SWIDTH 562 0
DWIDTH 12 0
BBX 10 15 1 0
BITMAP
07C0
0FC0
1C00
1C00
1C00
FFC0
FFC0
1C00
1C00
1C00
1C00
1C00
1C00
1C00
1C00
ENDCHAR
STARTCHAR 0067
ENCODING 103
SWIDTH 562 0
DWIDTH 12 0
BBX 10 14 1 -4
BITMAP
3FC0
7FC0
E380
E180
E380
7F00
7E00
E000
7E00
7F80
C3C0
C1C0
FF80
7F00
ENDCHAR
STARTCHAR 0068
ENCODING 104
SWIDTH 562 0
DWIDTH 12 0
BBX 9 15 1 0
BITMAP
E000
E000
E000
E000
E000
EF00
FF80
F380
E180
E180
E180
E180
E180
E180
E180
ENDCHAR
STARTCHAR 0069
ENCODING 105
SWIDTH 562 0
DWIDTH 12 0
BBX 10 15 1 0
BITMAP
0E00
0E00
0E00
0000
0000
FE00
FE00
0E00
0E00
0E00
0E00
0E00
0E00
FFC0
FFC0
ENDCHAR
STARTCHAR 006A
ENCODING 106
SWIDTH 562 0
DWIDTH 12 0
BBX 8 19 1 -4
BITMAP
07
07
07
00
00
7F
7F
07
07
07
07
07
07
07
07
07
07
FE
FC
ENDCHAR
STARTCHAR 006B
ENCODING 107
SWIDTH 562 0
DWIDTH 12 0
BBX 10 15 1 0
BITMAP
E000
E000
E000
E000
E000
E1C0
E300
E700
EE00
FC00
FC00
EE00
E700
E380
E1C0
ENDCHAR
STARTCHAR 006C
ENCODING 108
SWIDTH 562 0
DWIDTH 12 0
BBX 9 15 1 0
BITMAP
FC00
FC00
1C00
1C00
1C00
1C00
1C00
1C00
1C00
1C00
1C00
1C00
1C00
1F80
1F80
ENDCHAR
STARTCHAR 006D
ENCODING 109
SWIDTH 562 0
DWIDTH 12 0
BBX 10 10 1 0
BITMAP
D980
FFC0
EEC0
CCC0
CCC0
CCC0
CCC0
CCC0
CCC0
CCC0
ENDCHAR
STARTCHAR 006E
ENCODING 110
SWIDTH 562 0
DWIDTH 12 0
BBX 9 10 1 0
BITMAP
CF00
FF80
F380
E180
E180
E180
E180
E180
E180
E180
ENDCHAR
STARTCHAR 006F
ENCODING 111
SWIDTH 562 0
DWIDTH 12 0
BBX 10 10 1 0
BITMAP
3F00
7F80
E380
E180
E1C0
E1C0
E180
E380
7F80
3E00
ENDCHAR
STARTCHAR 0070
ENCODING 112
SWIDTH 562 0
DWIDTH 12 0
BBX 10 14 1 -4
BITMAP
CF00
FF80
F180
E1C0
E1C0
E1C0
E180
E380
FF80
FE00
E000
E000
E000
E000
ENDCHAR
STARTCHAR 0071
ENCODING 113
SWIDTH 562 0
DWIDTH 12 0
BBX 9 14 1 -4
BITMAP
3D80
7F80
E380
E180
C180
C180
E380
E780
7D80
3980
0180
0180
0180
0180
ENDCHAR
STARTCHAR 0072
ENCODING 114
SWIDTH 562 0
DWIDTH 12 0
BBX 10 10 1 0
BITMAP
F9C0
FFC0
1E00
1C00
1800
1800
1800
1800
FF00
FF00
ENDCHAR
STARTCHAR 0073
ENCODING 115
SWIDTH 562 0
DWIDTH 12 0
BBX 8 10 2 0
BITMAP
7E
FE
C0
E0
FC
3F
07
03
FF
FE
ENDCHAR
STARTCHAR 0074
ENCODING 116
SWIDTH 562 0
DWIDTH 12 0
BBX 10 14 1 0
BITMAP
3800
3800
3800
3800
FF80
FF80
3800
3800
3800
3800
3800
1800
1F80
0FC0
ENDCHAR
STARTCHAR 0075
ENCODING 117
SWIDTH 562 0
DWIDTH 12 0
BBX 9 10 1 0
BITMAP
E180
E180
E180
E180
E180
E180
E380
E780
7D80
7980
ENDCHAR
STARTCHAR 0076
ENCODING 118
SWIDTH 562 0
DWIDTH 12 0
BBX 11 10 0 0
BITMAP
E0E0
70E0
70C0
31C0
3980
3980
1B80
1F00
1F00
0F00
ENDCHAR
STARTCHAR 0077
ENCODING 119
SWIDTH 562 0
DWIDTH 12 0
BBX 11 10 0 0
BITMAP
E060
E060
EE60
6E60
6F60
6FE0
6BC0
6BC0
79C0
39C0
ENDCHAR
STARTCHAR 0078
ENCODING 120
SWIDTH 562 0
DWIDTH 12 0
BBX 11 10 0 0
BITMAP
70E0
39C0
1980
1F00
0F00
1F00
1B80
3980
71C0
E0E0
ENDCHAR
STARTCHAR 0079
ENCODING 121
SWIDTH 562 0
DWIDTH 12 0
BBX 11 14 0 -4
BITMAP
E0E0
70E0
70C0
31C0
3980
3980
1B80
1F00
0F00
0E00
0600
0C00
7C00
7800
ENDCHAR
STARTCHAR 007A
ENCODING 122
SWIDTH 562 0
DWIDTH 12 0
BBX 9 10 1 0
BITMAP
7F80
7F80
0700
0E00
0E00
1C00
3800
7000
FF80
FF80
ENDCHAR
STARTCHAR 007B
ENCODING 123
SWIDTH 562 0
DWIDTH 12 0
BBX 9 18 1 -3
BITMAP
0780
0F80
0E00
0C00
0C00
0C00
0C00
3C00
F800
F800
3C00
0C00
0C00
0C00
0C00
0E00
0F80
0780
ENDCHAR
STARTCHAR 007C
ENCODING 124
SWIDTH 562 0
DWIDTH 12 0
BBX 2 19 5 -4
BITMAP
C0
C0
C0
C0
C0
C0
C0
C0
C0
C0
C0
C0
C0
C0
C0
C0
C0
C0
C0
ENDCHAR
STARTCHAR 007D
ENCODING 125
SWIDTH 562 0
DWIDTH 12 0
BBX 9 18 1 -3
BITMAP
F000
F800
1C00
0C00
0C00
0C00
0C00
0E00
0780
0780
0E00
0C00
0C00
0C00
0C00
1C00
F800
F000
ENDCHAR
STARTCHAR 007E
ENCODING 126
SWIDTH 562 0
DWIDTH 12 0
BBX 10 5 1 4
BITMAP
70C0
F8C0
CCC0
CF80
C700
ENDCHAR
STARTCHAR 00A0
ENCODING 160
SWIDTH 562 0
DWIDTH 12 0
BBX 0 0 0 0
BITMAP
ENDCHAR
STARTCHAR 00A1
ENCODING 161
SWIDTH 562 0
DWIDTH 12 0
BBX 3 15 4 -4
BITMAP
E0
E0
E0
00
00
00
60
60
60
60
60
60
E0
E0
E0
ENDCHAR
STARTCHAR 00A2
ENCODING 162
SWIDTH 562 0
DWIDTH 12 0
BBX 9 14 1 0
BITMAP
0300
0300
1F80
7F80
7600
6600
E600
E600
6400
7400
7F80
1F80
0C00
0C00
ENDCHAR
STARTCHAR 00A3
ENCODING 163
SWIDTH 562 0
DWIDTH 12 0
BBX 9 14 1 0
BITMAP
0F80
3F80
3800
3000
3000
3000
7F80
7F80
3800
3800
3800
3000
FF80
FF80
ENDCHAR
STARTCHAR 00A4
ENCODING 164
SWIDTH 562 0
DWIDTH 12 0
BBX 11 12 0 1
BITMAP
4040
EFE0
7FC0
31C0
30C0
20C0
20C0
30C0
31C0
7FC0
6FE0
C040
ENDCHAR
STARTCHAR 00A5
ENCODING 165
SWIDTH 562 0
DWIDTH 12 0
BBX 10 14 1 0
BITMAP
E1C0
6180
7380
7300
3700
3E00
1E00
7F80
7F80
0C00
7F80
7F80
0C00
0C00
ENDCHAR
STARTCHAR 00A6
ENCODING 166
SWIDTH 562 0
DWIDTH 12 0
BBX 2 19 5 -4
BITMAP
C0
C0
C0
C0
C0
C0
C0
C0
00
00
00
C0
C0
C0
C0
C0
C0
C0
C0
ENDCHAR
STARTCHAR 00A7
ENCODING 167
SWIDTH 562 0
DWIDTH 12 0
BBX 10 16 1 -2
BITMAP
1F00
7F00
7000
7000
7800
7E00
EF80
C380
E1C0
7980
3F80
0F00
0300
0300
7F00
7E00
ENDCHAR
STARTCHAR 00A8
ENCODING 168
SWIDTH 562 0
DWIDTH 12 0
BBX 7 3 2 12
BITMAP
E6
E6
E6
ENDCHAR
STARTCHAR 00A9
ENCODING 169
SWIDTH 562 0
DWIDTH 12 0
BBX 11 14 0 0
BITMAP
1F00
30C0
6040
4F60
D860
D820
D820
D820
D820
D860
4F60
6040
30C0
1F00
ENDCHAR
STARTCHAR 00AA
ENCODING 170
SWIDTH 562 0
DWIDTH 12 0
BBX 7 10 2 4
BITMAP
7C
06
06
3E
C6
C6
C6
7A
00
FE
ENDCHAR
STARTCHAR 00AB
ENCODING 171
SWIDTH 562 0
DWIDTH 12 0
BBX 9 10 1 0
BITMAP
1100
3980
3380
7300
E700
E700
7300
3380
3980
1100
ENDCHAR
STARTCHAR 00AC
ENCODING 172
SWIDTH 562 0
DWIDTH 12 0
BBX 9 5 1 2
BITMAP
FF80
FF80
0180
0180
0180
ENDCHAR
STARTCHAR 00AD
ENCODING 173
SWIDTH 562 0
DWIDTH 12 0
BBX 7 2 2 5
BITMAP
FE
FE
ENDCHAR
STARTCHAR 00AE
ENCODING 174
SWIDTH 562 0
DWIDTH 12 0
BBX 8 8 2 7
BITMAP
3C
C2
BF
B9
A9
AB
C6
3C
ENDCHAR
STARTCHAR 00AF
ENCODING 175
SWIDTH 562 0
DWIDTH 12 0
BBX 6 2 3 13
BITMAP
FC
FC
ENDCHAR
STARTCHAR 00B0
ENCODING 176
SWIDTH 562 0
DWIDTH 12 0
BBX 7 7 2 7
BITMAP
3C
7E
C6
C6
E6
7E
3C
ENDCHAR
STARTCHAR 00B1
ENCODING 177
SWIDTH 562 0
DWIDTH 12 0
BBX 9 13 1 0
BITMAP
0C00
0C00
0C00
0C00
FF80
FF80
0C00
0C00
0C00
0000
0000
FF80
FF80
ENDCHAR
STARTCHAR 00B2
ENCODING 178
SWIDTH 562 0
DWIDTH 12 0
BBX 6 7 3 7
BITMAP
F8
1C
1C
18
70
E0
FC
ENDCHAR
STARTCHAR 00B3
ENCODING 179
SWIDTH 562 0
DWIDTH 12 0
BBX 6 7 3 7
BITMAP
F8
1C
18
70
0C
0C
F8
ENDCHAR
STARTCHAR 00B4
ENCODING 180
SWIDTH 562 0
DWIDTH 12 0
BBX 4 4 4 12
BITMAP
20
70
E0
80
ENDCHAR
STARTCHAR 00B5
ENCODING 181
SWIDTH 562 0
DWIDTH 12 0
BBX 9 14 1 -4
BITMAP
E180
E180
E180
E180
E180
E180
E380
E780
FF80
FD80
E000
E000
E000
E000
ENDCHAR
STARTCHAR 00B6
ENCODING 182
SWIDTH 562 0
DWIDTH 12 0
BBX 10 18 1 -3
BITMAP
3FC0
FFC0
FD80
FD80
FD80
FD80
FD80
FD80
FD80
7D80
0D80
0D80
0D80
0D80
0D80
0D80
0D80
0D80
ENDCHAR
STARTCHAR 00B7
ENCODING 183
SWIDTH 562 0
DWIDTH 12 0
BBX 3 3 4 4
BITMAP
E0
E0
E0
ENDCHAR
STARTCHAR 00B8
ENCODING 184
SWIDTH 562 0
DWIDTH 12 0
BBX 4 5 4 -5
BITMAP
40
F0
30
F0
C0
ENDCHAR
STARTCHAR 00B9
ENCODING 185
SWIDTH 562 0
DWIDTH 12 0
BBX 6 7 3 7
BITMAP
30
F0
B0
30
30
30
FC
ENDCHAR
STARTCHAR 00BA
ENCODING 186
SWIDTH 562 0
DWIDTH 12 0
BBX 8 10 2 4
BITMAP
3C
46
C2
C3
C3
C2
C6
7C
00
FE
ENDCHAR
STARTCHAR 00BB
ENCODING 187
SWIDTH 562 0
DWIDTH 12 0
BBX 10 10 1 0
BITMAP
4600
E600
6700
7380
3980
39C0
7380
6700
E600
4200
ENDCHAR
STARTCHAR 00BC
ENCODING 188
SWIDTH 562 0
DWIDTH 12 0
BBX 10 14 1 0
BITMAP
6080
E180
E100
6300
6600
6400
6C00
0980
1B80
1280
3680
6480
47C0
C080
ENDCHAR
STARTCHAR 00BD
ENCODING 189
SWIDTH 562 0
DWIDTH 12 0
BBX 10 14 1 0
BITMAP
6080
E180
E300
6200
6600
6400
6C00
0B80
18C0
30C0
21C0
6180
4300
C3C0
ENDCHAR
STARTCHAR 00BE
ENCODING 190
SWIDTH 562 0
DWIDTH 12 0
BBX 10 14 1 0
BITMAP
E080
2180
6100
C300
3600
3400
EC00
0980
1B80
1280
3680
6480
47C0
C080
ENDCHAR
STARTCHAR 00BF
ENCODING 191
SWIDTH 562 0
DWIDTH 12 0
BBX 8 15 2 -4
BITMAP
1C
1C
1C
00
00
00
0C
0C
18
70
E0
C0
C0
FF
7F
ENDCHAR
STARTCHAR 00C0
ENCODING 192
SWIDTH 562 0
DWIDTH 12 0
BBX 11 20 0 0
BITMAP
1000
1C00
1E00
0200
0000
0F00
1F00
1B00
1B80
1B80
1980
3980
31C0
31C0
3FC0
7FC0
60C0
60E0
60E0
E060
ENDCHAR
STARTCHAR 00C1
ENCODING 193
SWIDTH 562 0
DWIDTH 12 0
BBX 11 20 0 0
BITMAP
0100
0380
0F00
0400
0000
0F00
1F00
1B00
1B80
1B80
1980
3980
31C0
31C0
3FC0
7FC0
60C0
60E0
60E0
E060
ENDCHAR
STARTCHAR 00C2
ENCODING 194
SWIDTH 562 0
DWIDTH 12 0
BBX 11 19 0 0
BITMAP
0600
1F80
3180
0000
0F00
1F00
1B00
1B80
1B80
1980
3980
31C0
31C0
3FC0
7FC0
60C0
60E0
60E0
E060
ENDCHAR
STARTCHAR 00C3
ENCODING 195
SWIDTH 562 0
DWIDTH 12 0
BBX 11 19 0 0
BITMAP
1C80
3F80
2300
0000
0F00
1F00
1B00
1B80
1B80
1980
3980
31C0
31C0
3FC0
7FC0
60C0
60E0
60E0
E060
ENDCHAR
STARTCHAR 00C4
ENCODING 196
SWIDTH 562 0
DWIDTH 12 0
BBX 11 19 0 0
BITMAP
3980
39C0
3980
0000
0F00
1F00
1B00
1B80
1B80
1980
3980
31C0
31C0
3FC0
7FC0
60C0
60E0
60E0
E060
ENDCHAR
STARTCHAR 00C5
ENCODING 197
SWIDTH 562 0
DWIDTH 12 0
BBX 11 20 0 0
BITMAP
0E00
1B00
1900
0F00
0000
0F00
1F00
1B00
1B80
1B80
1980
3980
31C0
31C0
3FC0
7FC0
60C0
60E0
60E0
E060
ENDCHAR
STARTCHAR 00C6
ENCODING 198
SWIDTH 562 0
DWIDTH 12 0
BBX 11 15 0 0
BITMAP
1FE0
1FE0
1B00
1B00
3B00
3300
33E0
33E0
7300
7F00
7F00
6300
6300
E3E0
E3E0
ENDCHAR
STARTCHAR 00C7
ENCODING 199
SWIDTH 562 0
DWIDTH 12 0
BBX 10 19 1 -4
BITMAP
1FC0
3F80
7000
6000
E000
E000
E000
E000
E000
E000
E000
E000
7000
7F80
1F80
0C40
0F00
0300
1E00
ENDCHAR
STARTCHAR 00C8
ENCODING 200
SWIDTH 562 0
DWIDTH 12 0
BBX 8 20 2 0
BITMAP
40
70
7C
08
00
FF
FF
C0
C0
C0
C0
FF
FF
C0
C0
C0
C0
C0
FF
FF
ENDCHAR
STARTCHAR 00C9
ENCODING 201
SWIDTH 562 0
DWIDTH 12 0
BBX 8 20 2 0
BITMAP
06
0E
3C
10
00
FF
FF
C0
C0
C0
C0
FF
FF
C0
C0
C0
C0
C0
FF
FF
ENDCHAR
STARTCHAR 00CA
ENCODING 202
SWIDTH 562 0
DWIDTH 12 0
BBX 8 19 2 0
BITMAP
18
7E
66
00
FF
FF
C0
C0
C0
C0
FF
FF
C0
C0
C0
C0
C0
FF
FF
ENDCHAR
STARTCHAR 00CB
ENCODING 203
SWIDTH 562 0
DWIDTH 12 0
BBX 8 19 2 0
BITMAP
E7
E7
E7
00
FF
FF
C0
C0
C0
C0
FF
FF
C0
C0
C0
C0
C0
FF
FF
ENDCHAR
STARTCHAR 00CC
ENCODING 204
SWIDTH 562 0
DWIDTH 12 0
BBX 9 20 1 0
BITMAP
2000
3800
7C00
0400
0000
FF80
FF80
0C00
0C00
0C00
0C00
0C00
0C00
0C00
0C00
0C00
0C00
0C00
FF80
FF80
ENDCHAR
STARTCHAR 00CD
ENCODING 205
SWIDTH 562 0
DWIDTH 12 0
BBX 9 20 1 0
BITMAP
0200
0F00
1E00
1800
0000
FF80
FF80
0C00
0C00
0C00
0C00
0C00
0C00
0C00
0C00
0C00
0C00
0C00
FF80
FF80
ENDCHAR
STARTCHAR 00CE
ENCODING 206
SWIDTH 562 0
DWIDTH 12 0
BBX 9 19 1 0
BITMAP
0C00
3F00
6300
0000
FF80
FF80
0C00
0C00
0C00
0C00
0C00
0C00
0C00
0C00
0C00
0C00
0C00
FF80
FF80
ENDCHAR
STARTCHAR 00CF
ENCODING 207
SWIDTH 562 0
DWIDTH 12 0
BBX 9 19 1 0
BITMAP
7300
7380
7300
0000
FF80
FF80
0C00
0C00
0C00
0C00
0C00
0C00
0C00
0C00
0C00
0C00
0C00
FF80
FF80
ENDCHAR
STARTCHAR 00D0
ENCODING 208
SWIDTH 562 0
DWIDTH 12 0
BBX 11 15 0 0
BITMAP
7F00
7FC0
71C0
70E0
70E0
70E0
FCE0
FCE0
70E0
70E0
70E0
70C0
71C0
7F80
7F00
ENDCHAR
STARTCHAR 00D1
ENCODING 209
SWIDTH 562 0
DWIDTH 12 0
BBX 10 19 1 0
BITMAP
3900
7F80
2700
0000
E1C0
F1C0
F1C0
F9C0
D9C0
D9C0
DDC0
CDC0
CDC0
CFC0
C7C0
C6C0
C7C0
C3C0
C3C0
ENDCHAR
STARTCHAR 00D2
ENCODING 210
SWIDTH 562 0
DWIDTH 12 0
BBX 10 20 1 0
BITMAP
2000
3800
7C00
0C00
0000
3E00
7F80
E380
E180
C1C0
C1C0
C1C0
C1C0
C1C0
C1C0
C1C0
E180
E380
7F00
3E00
ENDCHAR
STARTCHAR 00D3
ENCODING 211
SWIDTH 562 0
DWIDTH 12 0
BBX 10 20 1 0
BITMAP
0300
0700
1E00
0800
0000
3E00
7F80
E380
E180
C1C0
C1C0
C1C0
C1C0
C1C0
C1C0
C1C0
E180
E380
7F00
3E00
ENDCHAR
STARTCHAR 00D4
ENCODING 212
SWIDTH 562 0
DWIDTH 12 0
BBX 10 19 1 0
BITMAP
0C00
3F00
6300
0000
3E00
7F80
E380
E180
C1C0
C1C0
C1C0
C1C0
C1C0
C1C0
C1C0
E180
E380
7F00
3E00
ENDCHAR
STARTCHAR 00D5
ENCODING 213
SWIDTH 562 0
DWIDTH 12 0
BBX 10 19 1 0
BITMAP
3900
7F00
4600
0000
3E00
7F80
E380
E180
C1C0
C1C0
C1C0
C1C0
C1C0
C1C0
C1C0
E180
E380
7F00
3E00
ENDCHAR
STARTCHAR 00D6
ENCODING 214
SWIDTH 562 0
DWIDTH 12 0
BBX 10 19 1 0
BITMAP
7300
7380
7300
0000
3E00
7F80
E380
E180
C1C0
C1C0
C1C0
C1C0
C1C0
C1C0
C1C0
E180
E380
7F00
3E00
ENDCHAR
STARTCHAR 00D7
ENCODING 215
SWIDTH 562 0
DWIDTH 12 0
BBX 9 9 1 2
BITMAP
4180
E380
7700
3E00
1C00
3E00
7700
E380
4080
ENDCHAR
STARTCHAR 00D8
ENCODING 216
SWIDTH 562 0
DWIDTH 12 0
BBX 10 19 1 -2
BITMAP
0180
0180
3F80
7F80
E380
C7C0
C7C0
C6C0
CCC0
CCC0
D8C0
D8C0
D9C0
F180
F380
7F00
7E00
6000
C000
ENDCHAR
STARTCHAR 00D9
ENCODING 217
SWIDTH 562 0
DWIDTH 12 0
BBX 10 20 1 0
BITMAP
2000
7800
3C00
0C00
0000
E1C0
E1C0
E1C0
E1C0
E1C0
E1C0
E1C0
E1C0
E1C0
E1C0
E1C0
E180
E380
7F80
3E00
ENDCHAR
STARTCHAR 00DA
ENCODING 218
SWIDTH 562 0
DWIDTH 12 0
BBX 10 20 1 0
BITMAP
0100
0700
1E00
0800
0000
E1C0
E1C0
E1C0
E1C0
E1C0
E1C0
E1C0
E1C0
E1C0
E1C0
E1C0
E180
E380
7F80
3E00
ENDCHAR
STARTCHAR 00DB
ENCODING 219
SWIDTH 562 0
DWIDTH 12 0
BBX 10 19 1 0
BITMAP
0C00
3F00
6300
0000
E1C0
E1C0
E1C0
E1C0
E1C0
E1C0
E1C0
E1C0
E1C0
E1C0
E1C0
E180
E380
7F80
3E00
ENDCHAR
STARTCHAR 00DC
ENCODING 220
SWIDTH 562 0
DWIDTH 12 0
BBX 10 19 1 0
BITMAP
7300
7380
7300
0000
E1C0
E1C0
E1C0
E1C0
E1C0
E1C0
E1C0
E1C0
E1C0
E1C0
E1C0
E180
E380
7F80
3E00
ENDCHAR
STARTCHAR 00DD
ENCODING 221
SWIDTH 562 0
DWIDTH 12 0
BBX 11 20 0 0
BITMAP
0080
0380
0F00
0400
0000
E060
60E0
70C0
31C0
3980
1B80
1F00
0F00
0F00
0E00
0E00
0E00
0E00
0E00
0E00
ENDCHAR
STARTCHAR 00DE
ENCODING 222
SWIDTH 562 0
DWIDTH 12 0
BBX 10 15 1 0
BITMAP
E000
E000
E000
FF00
FF80
E1C0
E1C0
E1C0
E1C0
E1C0
FF80
FF00
E000
E000
E000
ENDCHAR
STARTCHAR 00DF
ENCODING 223
SWIDTH 562 0
DWIDTH 12 0
BBX 10 15 1 0
BITMAP
3F00
7F80
E380
E380
E300
E600
EE00
EE00
EF00
E780
E3C0
E0C0
E0C0
EFC0
EF80
ENDCHAR
STARTCHAR 00E0
ENCODING 224
SWIDTH 562 0
DWIDTH 12 0
BBX 9 16 1 0
BITMAP
1000
3800
1C00
0400
0000
0000
7F00
7F80
0380
0180
3F80
FF80
E380
C780
FD80
7980
ENDCHAR
STARTCHAR 00E1
ENCODING 225
SWIDTH 562 0
DWIDTH 12 0
BBX 9 16 1 0
BITMAP
0200
0700
0E00
0800
0000
0000
7F00
7F80
0380
0180
3F80
FF80
E380
C780
FD80
7980
ENDCHAR
STARTCHAR 00E2
ENCODING 226
SWIDTH 562 0
DWIDTH 12 0
BBX 9 16 1 0
BITMAP
0C00
1E00
3300
2100
0000
0000
7F00
7F80
0380
0180
3F80
FF80
E380
C780
FD80
7980
ENDCHAR
STARTCHAR 00E3
ENCODING 227
SWIDTH 562 0
DWIDTH 12 0
BBX 9 15 1 0
BITMAP
1900
3F80
6600
0000
0000
7F00
7F80
0380
0180
3F80
FF80
E380
C780
FD80
7980
ENDCHAR
STARTCHAR 00E4
ENCODING 228
SWIDTH 562 0
DWIDTH 12 0
BBX 9 15 1 0
BITMAP
3300
7380
3300
0000
0000
7F00
7F80
0380
0180
3F80
FF80
E380
C780
FD80
7980
ENDCHAR
STARTCHAR 00E5
ENCODING 229
SWIDTH 562 0
DWIDTH 12 0
BBX 9 16 1 0
BITMAP
1E00
1200
1200
1E00
0000
0000
7F00
7F80
0380
0180
3F80
FF80
E380
C780
FD80
7980
ENDCHAR
STARTCHAR 00E6
ENCODING 230
SWIDTH 562 0
DWIDTH 12 0
BBX 11 10 0 0
BITMAP
7BC0
7FE0
0E60
0660
3FE0
7FE0
E600
CE00
FFE0
73E0
ENDCHAR
STARTCHAR 00E7
ENCODING 231
SWIDTH 562 0
DWIDTH 12 0
BBX 9 14 1 -4
BITMAP
1F80
3F80
7000
6000
6000
E000
6000
7000
7F80
1F80
0C00
0E00
0300
1E00
ENDCHAR
STARTCHAR 00E8
ENCODING 232
SWIDTH 562 0
DWIDTH 12 0
BBX 9 16 1 0
BITMAP
1000
3800
1C00
0400
0000
0000
3F00
7F80
6180
E180
FF80
FF80
E000
E000
7F80
3F80
ENDCHAR
STARTCHAR 00E9
ENCODING 233
SWIDTH 562 0
DWIDTH 12 0
BBX 9 16 1 0
BITMAP
0200
0700
0E00
0800
0000
0000
3F00
7F80
6180
E180
FF80
FF80
E000
E000
7F80
3F80
ENDCHAR
STARTCHAR 00EA
ENCODING 234
SWIDTH 562 0
DWIDTH 12 0
BBX 9 16 1 0
BITMAP
0C00
1E00
3300
2100
0000
0000
3F00
7F80
6180
E180
FF80
FF80
E000
E000
7F80
3F80
ENDCHAR
STARTCHAR 00EB
ENCODING 235
SWIDTH 562 0
DWIDTH 12 0
BBX 9 15 1 0
BITMAP
3300
7380
3300
0000
0000
3F00
7F80
6180
E180
FF80
FF80
E000
E000
7F80
3F80
ENDCHAR
STARTCHAR 00EC
ENCODING 236
SWIDTH 562 0
DWIDTH 12 0
BBX 10 16 1 0
BITMAP
1000
3800
0C00
0600
0000
0000
FE00
FE00
0E00
0E00
0E00
0E00
0E00
0E00
FFC0
FFC0
ENDCHAR
STARTCHAR 00ED
ENCODING 237
SWIDTH 562 0
DWIDTH 12 0
BBX 10 16 1 0
BITMAP
0200
0700
0E00
0800
0000
0000
FE00
FE00
0E00
0E00
0E00
0E00
0E00
0E00
FFC0
FFC0
ENDCHAR
STARTCHAR 00EE
ENCODING 238
SWIDTH 562 0
DWIDTH 12 0
BBX 10 16 1 0
BITMAP
0400
0E00
3B00
1180
0000
0000
FE00
FE00
0E00
0E00
0E00
0E00
0E00
0E00
FFC0
FFC0
ENDCHAR
STARTCHAR 00EF
ENCODING 239
SWIDTH 562 0
DWIDTH 12 0
BBX 10 15 1 0
BITMAP
3380
3380
3380
0000
0000
FE00
FE00
0E00
0E00
0E00
0E00
0E00
0E00
FFC0
FFC0
ENDCHAR
STARTCHAR 00F0
ENCODING 240
SWIDTH 562 0
DWIDTH 12 0
BBX 9 16 1 0
BITMAP
0900
1F80
0E00
3F00
1700
0380
3F80
7F80
E380
E180
E180
E180
E180
E380
7F00
3E00
ENDCHAR
STARTCHAR 00F1
ENCODING 241
SWIDTH 562 0
DWIDTH 12 0
BBX 9 15 1 0
BITMAP
3900
3F00
6600
0000
0000
CF00
FF80
F380
E180
E180
E180
E180
E180
E180
E180
ENDCHAR
STARTCHAR 00F2
ENCODING 242
SWIDTH 562 0
DWIDTH 12 0
BBX 10 16 1 0
BITMAP
1000
3800
1C00
0C00
0000
0000
3F00
7F80
E380
E180
E1C0
E1C0
E180
E380
7F80
3E00
ENDCHAR
STARTCHAR 00F3
ENCODING 243
SWIDTH 562 0
DWIDTH 12 0
BBX 10 16 1 0
BITMAP
0200
0700
0C00
1800
0000
0000
3F00
7F80
E380
E180
E1C0
E1C0
E180
E380
7F80
3E00
ENDCHAR
STARTCHAR 00F4
ENCODING 244
SWIDTH 562 0
DWIDTH 12 0
BBX 10 16 1 0
BITMAP
0800
1E00
3700
2200
0000
0000
3F00
7F80
E380
E180
E1C0
E1C0
E180
E380
7F80
3E00
ENDCHAR
STARTCHAR 00F5
ENCODING 245
SWIDTH 562 0
DWIDTH 12 0
BBX 10 15 1 0
BITMAP
3900
3F00
6600
0000
0000
3F00
7F80
E380
E180
E1C0
E1C0
E180
E380
7F80
3E00
ENDCHAR
STARTCHAR 00F6
ENCODING 246
SWIDTH 562 0
DWIDTH 12 0
BBX 10 15 1 0
BITMAP
7300
7300
7300
0000
0000
3F00
7F80
E380
E180
E1C0
E1C0
E180
E380
7F80
3E00
ENDCHAR
STARTCHAR 00F7
ENCODING 247
SWIDTH 562 0
DWIDTH 12 0
BBX 10 10 1 1
BITMAP
0C00
1C00
0C00
0000
FFC0
FFC0
0000
0C00
1C00
0C00
ENDCHAR
STARTCHAR 00F8
ENCODING 248
SWIDTH 562 0
DWIDTH 12 0
BBX 10 14 1 -2
BITMAP
0100
0380
3F00
7B80
E780
E5C0
CDC0
C9C0
D980
F380
7F80
7E00
6000
6000
ENDCHAR
STARTCHAR 00F9
ENCODING 249
SWIDTH 562 0
DWIDTH 12 0
BBX 9 16 1 0
BITMAP
1000
3800
1C00
0800
0000
0000
E180
E180
E180
E180
E180
E180
E380
E780
7D80
7980
ENDCHAR
STARTCHAR 00FA
ENCODING 250
SWIDTH 562 0
DWIDTH 12 0
BBX 9 16 1 0
BITMAP
0200
0700
0E00
1800
0000
0000
E180
E180
E180
E180
E180
E180
E380
E780
7D80
7980
ENDCHAR
STARTCHAR 00FB
ENCODING 251
SWIDTH 562 0
DWIDTH 12 0
BBX 9 16 1 0
BITMAP
0800
1E00
3700
2200
0000
0000
E180
E180
E180
E180
E180
E180
E380
E780
7D80
7980
ENDCHAR
STARTCHAR 00FC
ENCODING 252
SWIDTH 562 0
DWIDTH 12 0
BBX 9 15 1 0
BITMAP
7300
7300
7300
0000
0000
E180
E180
E180
E180
E180
E180
E380
E780
7D80
7980
ENDCHAR
STARTCHAR 00FD
ENCODING 253
SWIDTH 562 0
DWIDTH 12 0
BBX 11 20 0 -4
BITMAP
0100
0380
0700
0400
0000
0000
E0E0
70E0
70C0
31C0
3980
3980
1B80
1F00
0F00
0E00
0600
0C00
7C00
7800
ENDCHAR
STARTCHAR 00FE
ENCODING 254
SWIDTH 562 0
DWIDTH 12 0
BBX 10 19 1 -4
BITMAP
E000
E000
E000
E000
E000
EF00
FF80
F180
E1C0
E1C0
E1C0
E180
E380
FF80
FE00
E000
E000
E000
E000
ENDCHAR
STARTCHAR 00FF
ENCODING 255
SWIDTH 562 0
DWIDTH 12 0
BBX 11 19 0 -4
BITMAP
3980
3980
3980
0000
0000
E0E0
70E0
70C0
31C0
3980
3980
1B80
1F00
0F00
0E00
0600
0C00
7C00
7800
ENDCHAR
STARTCHAR 0100
ENCODING 256
SWIDTH 562 0
DWIDTH 12 0
BBX 11 19 0 0
BITMAP
3F80
3F80
0000
0000
0F00
1F00
1B00
1B80
1B80
1980
3980
31C0
31C0
3FC0
7FC0
60C0
60E0
60E0
E060
ENDCHAR
STARTCHAR 0101
ENCODING 257
SWIDTH 562 0
DWIDTH 12 0
BBX 9 15 1 0
BITMAP
3F00
3F00
0000
0000
0000
7F00
7F80
0380
0180
3F80
FF80
E380
C780
FD80
7980
ENDCHAR
STARTCHAR 0102
ENCODING 258
SWIDTH 562 0
DWIDTH 12 0
BBX 11 19 0 0
BITMAP
1180
1F80
0F00
0000
0F00
1F00
1B00
1B80
1B80
1980
3980
31C0
31C0
3FC0
7FC0
60C0
60E0
60E0
E060
ENDCHAR
STARTCHAR 0103
ENCODING 259
SWIDTH 562 0
DWIDTH 12 0
BBX 9 16 1 0
BITMAP
3300
3300
1E00
1E00
0000
0000
7F00
7F80
0380
0180
3F80
FF80
E380
C780
FD80
7980
ENDCHAR
STARTCHAR 0104
ENCODING 260
SWIDTH 562 0
DWIDTH 12 0
BBX 12 19 0 -4
BITMAP
0F00
0F00
1B00
1B80
1B80
1980
3980
31C0
31C0
3FC0
7FC0
60C0
60E0
60E0
E060
00C0
0180
01F0
00E0
ENDCHAR
STARTCHAR 0105
ENCODING 261
SWIDTH 562 0
DWIDTH 12 0
BBX 10 14 1 -4
BITMAP
7F00
7F80
0380
0180
3F80
FF80
E380
C780
FD80
7980
0300
0600
0780
07C0
ENDCHAR
STARTCHAR 0106
ENCODING 262
SWIDTH 562 0
DWIDTH 12 0
BBX 10 20 1 0
BITMAP
0100
0780
0F00
0C00
0000
1FC0
3F80
7000
6000
E000
E000
E000
E000
E000
E000
E000
E000
7000
7F80
1FC0
ENDCHAR
STARTCHAR 0107
ENCODING 263
SWIDTH 562 0
DWIDTH 12 0
BBX 9 16 1 0
BITMAP
0200
0700
0E00
0400
0000
0000
1F80
3F80
7000
6000
E000
E000
6000
7000
7F80
1F80
ENDCHAR
STARTCHAR 0108
ENCODING 264
SWIDTH 562 0
DWIDTH 12 0
BBX 10 19 1 0
BITMAP
0600
1F80
3180
0000
1FC0
3F80
7000
6000
E000
E000
E000
E000
E000
E000
E000
E000
7000
7F80
1FC0
ENDCHAR
STARTCHAR 0109
ENCODING 265
SWIDTH 562 0
DWIDTH 12 0
BBX 9 16 1 0
BITMAP
0400
0E00
3B00
1180
0000
0000
1F80
3F80
7000
6000
E000
E000
6000
7000
7F80
1F80
ENDCHAR
STARTCHAR 010A
ENCODING 266
SWIDTH 562 0
DWIDTH 12 0
BBX 10 19 1 0
BITMAP
0E00
0E00
0E00
0000
1FC0
3F80
7000
6000
E000
E000
E000
E000
E000
E000
E000
E000
7000
7F80
1FC0
ENDCHAR
STARTCHAR 010B
ENCODING 267
SWIDTH 562 0
DWIDTH 12 0
BBX 9 15 1 0
BITMAP
0E00
0E00
0E00
0000
0000
1F80
3F80
7000
6000
E000
E000
6000
7000
7F80
1F80
ENDCHAR
STARTCHAR 010C
ENCODING 268
SWIDTH 562 0
DWIDTH 12 0
BBX 10 19 1 0
BITMAP
1980
3F80
0600
0000
1FC0
3F80
7000
6000
E000
E000
E000
E000
E000
E000
E000
E000
7000
7F80
1FC0
ENDCHAR
STARTCHAR 010D
ENCODING 269
SWIDTH 562 0
DWIDTH 12 0
BBX 9 16 1 0
BITMAP
1100
3B80
0E00
0400
0000
0000
1F80
3F80
7000
6000
E000
E000
6000
7000
7F80
1F80
ENDCHAR
STARTCHAR 010E
ENCODING 270
SWIDTH 562 0
DWIDTH 12 0
BBX 10 19 1 0
BITMAP
6600
7E00
1800
0000
FE00
FF80
E380
E1C0
E1C0
E1C0
E1C0
E1C0
E1C0
E1C0
E1C0
E180
E380
FF00
FE00
ENDCHAR
STARTCHAR 010F
ENCODING 271
SWIDTH 562 0
DWIDTH 12 0
BBX 11 16 1 0
BITMAP
0060
0360
0360
0340
0300
0300
3B00
7F00
E700
C300
C300
C300
C700
E700
FF00
7B00
ENDCHAR
STARTCHAR 0110
ENCODING 272
SWIDTH 562 0
DWIDTH 12 0
BBX 11 15 0 0
BITMAP
7F00
7FC0
71C0
70E0
70E0
70E0
FCE0
FCE0
70E0
70E0
70E0
70C0
71C0
7F80
7F00
ENDCHAR
STARTCHAR 0111
ENCODING 273
SWIDTH 562 0
DWIDTH 12 0
BBX 10 15 1 0
BITMAP
0180
0FC0
0FC0
0180
0180
3D80
7F80
E380
E180
C180
C180
E380
E780
7D80
3980
ENDCHAR
STARTCHAR 0112
ENCODING 274
SWIDTH 562 0
DWIDTH 12 0
BBX 8 19 2 0
BITMAP
FE
FE
00
00
FF
FF
C0
C0
C0
C0
FF
FF
C0
C0
C0
C0
C0
FF
FF
ENDCHAR
STARTCHAR 0113
ENCODING 275
SWIDTH 562 0
DWIDTH 12 0
BBX 9 15 1 0
BITMAP
3F00
3F00
0000
0000
0000
3F00
7F80
6180
E180
FF80
FF80
E000
E000
7F80
3F80
ENDCHAR
STARTCHAR 0114
ENCODING 276
SWIDTH 562 0
DWIDTH 12 0
BBX 8 19 2 0
BITMAP
66
7E
3C
00
FF
FF
C0
C0
C0
C0
FF
FF
C0
C0
C0
C0
C0
FF
FF
ENDCHAR
STARTCHAR 0115
ENCODING 277
SWIDTH 562 0
DWIDTH 12 0
BBX 9 16 1 0
BITMAP
3300
3300
1E00
1E00
0000
0000
3F00
7F80
6180
E180
FF80
FF80
E000
E000
7F80
3F80
ENDCHAR
STARTCHAR 0116
ENCODING 278
SWIDTH 562 0
DWIDTH 12 0
BBX 8 19 2 0
BITMAP
18
18
18
00
FF
FF
C0
C0
C0
C0
FF
FF
C0
C0
C0
C0
C0
FF
FF
ENDCHAR
STARTCHAR 0117
ENCODING 279
SWIDTH 562 0
DWIDTH 12 0
BBX 9 15 1 0
BITMAP
0C00
0C00
0C00
0000
0000
3F00
7F80
6180
E180
FF80
FF80
E000
E000
7F80
3F80
ENDCHAR
STARTCHAR 0118
ENCODING 280
SWIDTH 562 0
DWIDTH 12 0
BBX 9 19 2 -4
BITMAP
FF00
FF00
C000
C000
C000
C000
FF00
FF00
C000
C000
C000
C000
C000
FF00
FF00
0600
0C00
0F80
0700
ENDCHAR
STARTCHAR 0119
ENCODING 281
SWIDTH 562 0
DWIDTH 12 0
BBX 9 14 1 -4
BITMAP
3F00
7F80
6180
E180
FF80
FF80
E000
E000
7F80
3F80
0700
0600
0780
0700
ENDCHAR
STARTCHAR 011A
ENCODING 282
SWIDTH 562 0
DWIDTH 12 0
BBX 8 19 2 0
BITMAP
66
7E
18
00
FF
FF
C0
C0
C0
C0
FF
FF
C0
C0
C0
C0
C0
FF
FF
ENDCHAR
STARTCHAR 011B
ENCODING 283
SWIDTH 562 0
DWIDTH 12 0
BBX 9 16 1 0
BITMAP
2100
3300
1E00
0C00
0000
0000
3F00
7F80
6180
E180
FF80
FF80
E000
E000
7F80
3F80
ENDCHAR
STARTCHAR 011C
ENCODING 284
SWIDTH 562 0
DWIDTH 12 0
BBX 10 19 1 0
BITMAP
0C00
3F00
3180
0000
1F80
7F80
7000
E000
C000
C000
C7C0
C7C0
C1C0
C1C0
C1C0
E1C0
E1C0
7FC0
3F80
ENDCHAR
STARTCHAR 011D
ENCODING 285
SWIDTH 562 0
DWIDTH 12 0
BBX 10 20 1 -4
BITMAP
0800
1C00
3700
6200
0000
0000
3FC0
7FC0
E380
E180
E380
7F00
7E00
E000
7E00
7F80
C3C0
C1C0
FF80
7F00
ENDCHAR
STARTCHAR 011E
ENCODING 286
SWIDTH 562 0
DWIDTH 12 0
BBX 10 19 1 0
BITMAP
3100
3F00
1E00
0000
1F80
7F80
7000
E000
C000
C000
C7C0
C7C0
C1C0
C1C0
C1C0
E1C0
E1C0
7FC0
3F80
ENDCHAR
STARTCHAR 011F
ENCODING 287
SWIDTH 562 0
DWIDTH 12 0
BBX 10 20 1 -4
BITMAP
2300
3200
3E00
1C00
0000
0000
3FC0
7FC0
E380
E180
E380
7F00
7E00
E000
7E00
7F80
C3C0
C1C0
FF80
7F00
ENDCHAR
STARTCHAR 0120
ENCODING 288
SWIDTH 562 0
DWIDTH 12 0
BBX 10 19 1 0
BITMAP
0C00
0E00
0C00
0000
1F80
7F80
7000
E000
C000
C000
C7C0
C7C0
C1C0
C1C0
C1C0
E1C0
E1C0
7FC0
3F80
ENDCHAR
STARTCHAR 0121
ENCODING 289
SWIDTH 562 0
DWIDTH 12 0
BBX 10 19 1 -4
BITMAP
1C00
1C00
1C00
0000
0000
3FC0
7FC0
E380
E180
E380
7F00
7E00
E000
7E00
7F80
C3C0
C1C0
FF80
7F00
ENDCHAR
STARTCHAR 0122
ENCODING 290
SWIDTH 562 0
DWIDTH 12 0
BBX 10 19 1 -4
BITMAP
1F80
7F80
7000
E000
C000
C000
C7C0
C7C0
C1C0
C1C0
C1C0
E1C0
E1C0
7FC0
3F80
0000
0C00
1E00
3800
ENDCHAR
STARTCHAR 0123
ENCODING 291
SWIDTH 562 0
DWIDTH 12 0
BBX 10 19 1 -4
BITMAP
0700
1E00
0C00
0000
0000
3FC0
7FC0
E380
E180
E380
7F00
7E00
E000
7E00
7F80
C3C0
C1C0
FF80
7F00
ENDCHAR
STARTCHAR 0124
ENCODING 292
SWIDTH 562 0
DWIDTH 12 0
BBX 9 19 1 0
BITMAP
0C00
3F00
6300
0000
E180
E180
E180
E180
E180
E180
FF80
FF80
E180
E180
E180
E180
E180
E180
E180
ENDCHAR
STARTCHAR 0125
ENCODING 293
SWIDTH 562 0
DWIDTH 12 0
BBX 9 20 1 0
BITMAP
0C00
3F00
3300
0000
0000
E000
E000
E000
E000
E000
EF00
FF80
F380
E180
E180
E180
E180
E180
E180
E180
ENDCHAR
STARTCHAR 0126
ENCODING 294
SWIDTH 562 0
DWIDTH 12 0
BBX 11 15 0 0
BITMAP
70C0
70C0
FFE0
FFE0
70C0
70C0
70C0
7FC0
7FC0
70C0
70C0
70C0
70C0
70C0
70C0
ENDCHAR
STARTCHAR 0127
ENCODING 295
SWIDTH 562 0
DWIDTH 12 0
BBX 10 15 0 0
BITMAP
7000
FC00
FC00
7000
7000
7780
7FC0
79C0
70C0
70C0
70C0
70C0
70C0
70C0
70C0
ENDCHAR
STARTCHAR 0128
ENCODING 296
SWIDTH 562 0
DWIDTH 12 0
BBX 9 19 1 0
BITMAP
3900
7F00
4600
0000
FF80
FF80
0C00
0C00
0C00
0C00
0C00
0C00
0C00
0C00
0C00
0C00
0C00
FF80
FF80
ENDCHAR
STARTCHAR 0129
ENCODING 297
SWIDTH 562 0
DWIDTH 12 0
BBX 10 15 1 0
BITMAP
1900
3F80
2700
0000
0000
FE00
FE00
0E00
0E00
0E00
0E00
0E00
0E00
FFC0
FFC0
ENDCHAR
STARTCHAR 012A
ENCODING 298
SWIDTH 562 0
DWIDTH 12 0
BBX 9 19 1 0
BITMAP
7F00
7F00
0000
0000
FF80
FF80
0C00
0C00
0C00
0C00
0C00
0C00
0C00
0C00
0C00
0C00
0C00
FF80
FF80
ENDCHAR
STARTCHAR 012B
ENCODING 299
SWIDTH 562 0
DWIDTH 12 0
BBX 10 15 1 0
BITMAP
3F00
3F00
0000
0000
0000
FE00
FE00
0E00
0E00
0E00
0E00
0E00
0E00
FFC0
FFC0
ENDCHAR
STARTCHAR 012C
ENCODING 300
SWIDTH 562 0
DWIDTH 12 0
BBX 9 19 1 0
BITMAP
3300
3F00
1E00
0000
FF80
FF80
0C00
0C00
0C00
0C00
0C00
0C00
0C00
0C00
0C00
0C00
0C00
FF80
FF80
ENDCHAR
STARTCHAR 012D
ENCODING 301
SWIDTH 562 0
DWIDTH 12 0
BBX 10 16 1 0
BITMAP
3300
3300
1F00
0E00
0000
0000
FE00
FE00
0E00
0E00
0E00
0E00
0E00
0E00
FFC0
FFC0
ENDCHAR
STARTCHAR 012E
ENCODING 302
SWIDTH 562 0
DWIDTH 12 0
BBX 9 19 1 -4
BITMAP
FF80
FF80
0C00
0C00
0C00
0C00
0C00
0C00
0C00
0C00
0C00
0C00
0C00
FF80
FF80
1800
3000
3C00
3E00
ENDCHAR
STARTCHAR 012F
ENCODING 303
SWIDTH 562 0
DWIDTH 12 0
BBX 10 19 1 -4
BITMAP
0E00
0E00
0E00
0000
0000
FE00
FE00
0E00
0E00
0E00
0E00
0E00
0E00
FFC0
FFC0
0800
1000
3E00
1C00
ENDCHAR
STARTCHAR 0130
ENCODING 304
SWIDTH 562 0
DWIDTH 12 0
BBX 9 19 1 0
BITMAP
0C00
1C00
0C00
0000
FF80
FF80
0C00
0C00
0C00
0C00
0C00
0C00
0C00
0C00
0C00
0C00
0C00
FF80
FF80
ENDCHAR
STARTCHAR 0131
ENCODING 305
SWIDTH 562 0
DWIDTH 12 0
BBX 10 10 1 0
BITMAP
FE00
FE00
0E00
0E00
0E00
0E00
0E00
0E00
FFC0
FFC0
ENDCHAR
STARTCHAR 0132
ENCODING 306
SWIDTH 562 0
DWIDTH 12 0
BBX 9 15 1 0
BITMAP
E180
E180
E180
E180
E180
E180
E180
E180
E180
E180
E180
E180
E380
EF80
EF00
ENDCHAR
STARTCHAR 0133
ENCODING 307
SWIDTH 562 0
DWIDTH 12 0
BBX 9 19 1 -4
BITMAP
6380
F380
6380
0000
0000
6380
6380
6380
6380
6380
6380
6380
6380
6380
6380
0380
0380
3F00
3E00
ENDCHAR
STARTCHAR 0134
ENCODING 308
SWIDTH 562 0
DWIDTH 12 0
BBX 9 19 1 0
BITMAP
0600
1F80
3100
0000
7F80
7F80
0380
0380
0380
0380
0380
0380
0380
0380
0380
0380
0300
FF00
FE00
ENDCHAR
STARTCHAR 0135
ENCODING 309
SWIDTH 562 0
DWIDTH 12 0
BBX 10 20 1 -4
BITMAP
0200
0700
1D80
08C0
0000
0000
7F00
7F00
0700
0700
0700
0700
0700
0700
0700
0700
0700
0700
FE00
FC00
ENDCHAR
STARTCHAR 0136
ENCODING 310
SWIDTH 562 0
DWIDTH 12 0
BBX 10 19 1 -4
BITMAP
E1C0
E380
E380
E700
E600
EE00
FC00
FC00
FC00
EE00
E600
E700
E380
E380
E1C0
0000
0C00
1C00
3800
ENDCHAR
STARTCHAR 0137
ENCODING 311
SWIDTH 562 0
DWIDTH 12 0
BBX 10 19 1 -4
BITMAP
E000
E000
E000
E000
E000
E1C0
E300
E700
EE00
FC00
FC00
EE00
E700
E380
E1C0
0000
0C00
1C00
7800
ENDCHAR
STARTCHAR 0138
ENCODING 312
SWIDTH 562 0
DWIDTH 12 0
BBX 10 10 1 0
BITMAP
E1C0
E300
E700
EE00
FC00
FC00
EE00
E700
E380
E1C0
ENDCHAR
STARTCHAR 0139
ENCODING 313
SWIDTH 562 0
DWIDTH 12 0
BBX 8 20 2 0
BITMAP
04
1C
7C
20
00
C0
C0
C0
C0
C0
C0
C0
C0
C0
C0
C0
C0
C0
FF
FF
ENDCHAR
STARTCHAR 013A
ENCODING 314
SWIDTH 562 0
DWIDTH 12 0
BBX 9 20 1 0
BITMAP
0200
0700
1E00
0800
0000
FC00
FC00
1C00
1C00
1C00
1C00
1C00
1C00
1C00
1C00
1C00
1C00
1C00
1F80
1F80
ENDCHAR
STARTCHAR 013B
ENCODING 315
SWIDTH 562 0
DWIDTH 12 0
BBX 8 19 2 -4
BITMAP
C0
C0
C0
C0
C0
C0
C0
C0
C0
C0
C0
C0
C0
FF
FF
00
18
38
70
ENDCHAR
STARTCHAR 013C
ENCODING 316
SWIDTH 562 0
DWIDTH 12 0
BBX 9 19 1 -4
BITMAP
FC00
FC00
1C00
1C00
1C00
1C00
1C00
1C00
1C00
1C00
1C00
1C00
1C00
1F80
1F80
0000
0C00
1C00
7800
ENDCHAR
STARTCHAR 013D
ENCODING 317
SWIDTH 562 0
DWIDTH 12 0
BBX 8 17 2 0
BITMAP
0E
0C
CC
CC
CC
C0
C0
C0
C0
C0
C0
C0
C0
C0
C0
FF
FF
ENDCHAR
STARTCHAR 013E
ENCODING 318
SWIDTH 562 0
DWIDTH 12 0
BBX 10 16 1 0
BITMAP
00C0
FCC0
FCC0
1C80
1D80
1C00
1C00
1C00
1C00
1C00
1C00
1C00
1C00
1C00
1F80
1F80
ENDCHAR
STARTCHAR 013F
ENCODING 319
SWIDTH 562 0
DWIDTH 12 0
BBX 8 15 2 0
BITMAP
C0
C0
C0
C0
C0
C7
C7
C7
C0
C0
C0
C0
C0
FF
FF
ENDCHAR
STARTCHAR 0140
ENCODING 320
SWIDTH 562 0
DWIDTH 12 0
BBX 10 15 1 0
BITMAP
F800
F800
3800
3800
3800
3800
3800
39C0
39C0
39C0
3800
3800
3800
3F00
3F00
ENDCHAR
STARTCHAR 0141
ENCODING 321
SWIDTH 562 0
DWIDTH 12 0
BBX 10 15 0 0
BITMAP
3800
3800
3800
3800
3A00
3F00
3C00
F800
7800
3800
3800
3800
3800
3FC0
3FC0
ENDCHAR
STARTCHAR 0142
ENCODING 322
SWIDTH 562 0
DWIDTH 12 0
BBX 9 15 1 0
BITMAP
FC00
FC00
1C00
1C00
1D00
1F80
3E00
FC00
5C00
1C00
1C00
1C00
1C00
1F80
1F80
ENDCHAR
STARTCHAR 0143
ENCODING 323
SWIDTH 562 0
DWIDTH 12 0
BBX 10 20 1 0
BITMAP
0100
0700
1F00
0800
0000
E1C0
F1C0
F1C0
F9C0
D9C0
D9C0
DDC0
CDC0
CDC0
CFC0
C7C0
C6C0
C7C0
C3C0
C3C0
ENDCHAR
STARTCHAR 0144
ENCODING 324
SWIDTH 562 0
DWIDTH 12 0
BBX 9 16 1 0
BITMAP
0200
0700
0E00
0800
0000
0000
CF00
FF80
F380
E180
E180
E180
E180
E180
E180
E180
ENDCHAR
STARTCHAR 0145
ENCODING 325
SWIDTH 562 0
DWIDTH 12 0
BBX 10 19 1 -4
BITMAP
E1C0
F1C0
F1C0
F9C0
D9C0
D9C0
DDC0
CDC0
CDC0
CFC0
C7C0
C6C0
C7C0
C3C0
C3C0
0000
0C00
1C00
3800
ENDCHAR
STARTCHAR 0146
ENCODING 326
SWIDTH 562 0
DWIDTH 12 0
BBX 9 14 1 -4
BITMAP
CF00
FF80
F380
E180
E180
E180
E180
E180
E180
E180
0000
0C00
3C00
7000
ENDCHAR
STARTCHAR 0147
ENCODING 327
SWIDTH 562 0
DWIDTH 12 0
BBX 10 19 1 0
BITMAP
3300
3F00
0C00
0000
E1C0
F1C0
F1C0
F9C0
D9C0
D9C0
DDC0
CDC0
CDC0
CFC0
C7C0
C6C0
C7C0
C3C0
C3C0
ENDCHAR
STARTCHAR 0148
ENCODING 328
SWIDTH 562 0
DWIDTH 12 0
BBX 9 16 1 0
BITMAP
2200
7700
1C00
0800
0000
0000
CF00
FF80
F380
E180
E180
E180
E180
E180
E180
E180
ENDCHAR
STARTCHAR 0149
ENCODING 329
SWIDTH 562 0
DWIDTH 12 0
BBX 10 16 0 0
BITMAP
6000
E000
4000
C000
8000
0000
3380
37C0
3CC0
38C0
30C0
30C0
30C0
30C0
30C0
30C0
ENDCHAR
STARTCHAR 014A
ENCODING 330
SWIDTH 562 0
DWIDTH 12 0
BBX 10 19 1 -4
BITMAP
F1C0
F1C0
F1C0
F9C0
D9C0
D9C0
DDC0
CDC0
CDC0
CFC0
C7C0
C6C0
C7C0
C3C0
C3C0
01C0
0180
0F80
0F00
ENDCHAR
STARTCHAR 014B
ENCODING 331
SWIDTH 562 0
DWIDTH 12 0
BBX 9 14 1 -4
BITMAP
CF00
FF80
F380
E180
E180
E180
E180
E180
E180
E180
0180
0380
0F80
0F00
ENDCHAR
STARTCHAR 014C
ENCODING 332
SWIDTH 562 0
DWIDTH 12 0
BBX 10 19 1 0
BITMAP
7F00
7F00
0000
0000
3E00
7F80
E380
E180
C1C0
C1C0
C1C0
C1C0
C1C0
C1C0
C1C0
E180
E380
7F00
3E00
ENDCHAR
STARTCHAR 014D
ENCODING 333
SWIDTH 562 0
DWIDTH 12 0
BBX 10 15 1 0
BITMAP
3F00
3F00
0000
0000
0000
3F00
7F80
E380
E180
E1C0
E1C0
E180
E380
7F80
3E00
ENDCHAR
STARTCHAR 014E
ENCODING 334
SWIDTH 562 0
DWIDTH 12 0
BBX 10 19 1 0
BITMAP
3300
3F00
1E00
0000
3E00
7F80
E380
E180
C1C0
C1C0
C1C0
C1C0
C1C0
C1C0
C1C0
E180
E380
7F00
3E00
ENDCHAR
STARTCHAR 014F
ENCODING 335
SWIDTH 562 0
DWIDTH 12 0
BBX 10 16 1 0
BITMAP
3300
3300
3E00
1C00
0000
0000
3F00
7F80
E380
E180
E1C0
E1C0
E180
E380
7F80
3E00
ENDCHAR
STARTCHAR 0150
ENCODING 336
SWIDTH 562 0
DWIDTH 12 0
BBX 11 20 1 0
BITMAP
0840
1CC0
3BA0
2300
0000
3E00
7F80
E380
E180
C1C0
C1C0
C1C0
C1C0
C1C0
C1C0
C1C0
E180
E380
7F00
3E00
ENDCHAR
STARTCHAR 0151
ENCODING 337
SWIDTH 562 0
DWIDTH 12 0
BBX 10 17 1 0
BITMAP
0900
1DC0
1B80
3300
2600
0000
0000
3F00
7F80
E380
E180
E1C0
E1C0
E180
E380
7F80
3E00
ENDCHAR
STARTCHAR 0152
ENCODING 338
SWIDTH 562 0
DWIDTH 12 0
BBX 11 15 0 0
BITMAP
3FE0
7FE0
7300
6300
E300
E300
E3E0
E3E0
E300
E300
E300
6300
7300
7FE0
3FE0
ENDCHAR
STARTCHAR 0153
ENCODING 339
SWIDTH 562 0
DWIDTH 12 0
BBX 11 10 0 0
BITMAP
7BC0
7FE0
EE60
C660
C7E0
C7E0
C600
EE00
7FE0
7BE0
ENDCHAR
STARTCHAR 0154
ENCODING 340
SWIDTH 562 0
DWIDTH 12 0
BBX 10 20 1 0
BITMAP
0200
0E00
1F00
1800
0000
FF00
FF80
E180
E1C0
E1C0
E180
FF80
FF00
EE00
E600
E700
E700
E380
E380
E1C0
ENDCHAR
STARTCHAR 0155
ENCODING 341
SWIDTH 562 0
DWIDTH 12 0
BBX 10 16 1 0
BITMAP
0200
0700
0E00
1800
0000
0000
F9C0
FFC0
1E00
1C00
1800
1800
1800
1800
FF00
FF00
ENDCHAR
STARTCHAR 0156
ENCODING 342
SWIDTH 562 0
DWIDTH 12 0
BBX 10 19 1 -4
BITMAP
FF00
FF80
E180
E1C0
E1C0
E180
FF80
FF00
EE00
E600
E700
E700
E380
E380
E1C0
0000
0C00
3C00
7000
ENDCHAR
STARTCHAR 0157
ENCODING 343
SWIDTH 562 0
DWIDTH 12 0
BBX 10 14 1 -4
BITMAP
F9C0
FFC0
1E00
1C00
1800
1800
1800
1800
FF00
FF00
0000
1800
3800
F000
ENDCHAR
STARTCHAR 0158
ENCODING 344
SWIDTH 562 0
DWIDTH 12 0
BBX 10 19 1 0
BITMAP
2200
7F00
0C00
0000
FF00
FF80
E180
E1C0
E1C0
E180
FF80
FF00
EE00
E600
E700
E700
E380
E380
E1C0
ENDCHAR
STARTCHAR 0159
ENCODING 345
SWIDTH 562 0
DWIDTH 12 0
BBX 10 16 1 0
BITMAP
2200
7700
1C00
0800
0000
0000
F9C0
FFC0
1E00
1C00
1800
1800
1800
1800
FF00
FF00
ENDCHAR
STARTCHAR 015A
ENCODING 346
SWIDTH 562 0
DWIDTH 12 0
BBX 10 20 1 0
BITMAP
0200
0700
1E00
0800
0000
3F80
7F80
E000
C000
E000
F000
7C00
3F00
0F80
0380
01C0
01C0
0380
FF80
FE00
ENDCHAR
STARTCHAR 015B
ENCODING 347
SWIDTH 562 0
DWIDTH 12 0
BBX 8 16 2 0
BITMAP
04
0E
18
30
00
00
7E
FE
C0
E0
FC
3F
07
03
FF
FE
ENDCHAR
STARTCHAR 015C
ENCODING 348
SWIDTH 562 0
DWIDTH 12 0
BBX 10 19 1 0
BITMAP
0C00
3F00
3300
0000
3F80
7F80
E000
C000
E000
F000
7C00
3F00
0F80
0380
01C0
01C0
0380
FF80
FE00
ENDCHAR
STARTCHAR 015D
ENCODING 349
SWIDTH 562 0
DWIDTH 12 0
BBX 8 16 2 0
BITMAP
18
3C
66
42
00
00
7E
FE
C0
E0
FC
3F
07
03
FF
FE
ENDCHAR
STARTCHAR 015E
ENCODING 350
SWIDTH 562 0
DWIDTH 12 0
BBX 10 19 1 -4
BITMAP
3F80
7F80
E000
C000
E000
F000
7C00
3F00
0F80
0380
01C0
01C0
0380
FF80
FE00
1800
1E00
0600
1C00
ENDCHAR
STARTCHAR 015F
ENCODING 351
SWIDTH 562 0
DWIDTH 12 0
BBX 8 14 2 -4
BITMAP
7E
FE
C0
E0
FC
3F
07
03
FF
FE
30
3C
0C
38
ENDCHAR
STARTCHAR 0160
ENCODING 352
SWIDTH 562 0
DWIDTH 12 0
BBX 10 19 1 0
BITMAP
3300
3F00
0C00
0000
3F80
7F80
E000
C000
E000
F000
7C00
3F00
0F80
0380
01C0
01C0
0380
FF80
FE00
ENDCHAR
STARTCHAR 0161
ENCODING 353
SWIDTH 562 0
DWIDTH 12 0
BBX 8 16 2 0
BITMAP
42
76
3C
18
00
00
7E
FE
C0
E0
FC
3F
07
03
FF
FE
ENDCHAR
STARTCHAR 0162
ENCODING 354
SWIDTH 562 0
DWIDTH 12 0
BBX 11 19 0 -4
BITMAP
FFE0
FFE0
0600
0600
0600
0600
0600
0600
0600
0600
0600
0600
0600
0600
0600
0400
0700
0180
0F00
ENDCHAR
STARTCHAR 0163
ENCODING 355
SWIDTH 562 0
DWIDTH 12 0
BBX 10 18 1 -4
BITMAP
3800
3800
3800
3800
FF80
FF80
3800
3800
3800
3800
3800
1800
1F80
0FC0
0400
0700
0100
0F00
ENDCHAR
STARTCHAR 0164
ENCODING 356
SWIDTH 562 0
DWIDTH 12 0
BBX 11 19 0 0
BITMAP
1980
3F80
0600
0000
FFE0
FFE0
0600
0600
0600
0600
0600
0600
0600
0600
0600
0600
0600
0600
0600
ENDCHAR
STARTCHAR 0165
ENCODING 357
SWIDTH 562 0
DWIDTH 12 0
BBX 10 17 1 0
BITMAP
00C0
00C0
0180
3980
3980
3800
3800
FF80
FF80
3800
3800
3800
3800
3800
3800
1F80
0F80
ENDCHAR
STARTCHAR 0166
ENCODING 358
SWIDTH 562 0
DWIDTH 12 0
BBX 11 15 0 0
BITMAP
FFE0
FFE0
0600
0600
0600
0600
0600
3FC0
3FC0
0600
0600
0600
0600
0600
0600
ENDCHAR
STARTCHAR 0167
ENCODING 359
SWIDTH 562 0
DWIDTH 12 0
BBX 10 14 1 0
BITMAP
1800
1800
1800
1800
FF80
FF80
1800
FF80
FF80
1800
1800
1800
1FC0
0FC0
ENDCHAR
STARTCHAR 0168
ENCODING 360
SWIDTH 562 0
DWIDTH 12 0
BBX 10 19 1 0
BITMAP
3900
7F00
4600
0000
E1C0
E1C0
E1C0
E1C0
E1C0
E1C0
E1C0
E1C0
E1C0
E1C0
E1C0
E180
E380
7F80
3E00
ENDCHAR
STARTCHAR 0169
ENCODING 361
SWIDTH 562 0
DWIDTH 12 0
BBX 9 15 1 0
BITMAP
3900
7F00
2E00
0000
0000
E180
E180
E180
E180
E180
E180
E380
E780
7D80
7980
ENDCHAR
STARTCHAR 016A
ENCODING 362
SWIDTH 562 0
DWIDTH 12 0
BBX 10 19 1 0
BITMAP
7F00
7F00
0000
0000
E1C0
E1C0
E1C0
E1C0
E1C0
E1C0
E1C0
E1C0
E1C0
E1C0
E1C0
E180
E380
7F80
3E00
ENDCHAR
STARTCHAR 016B
ENCODING 363
SWIDTH 562 0
DWIDTH 12 0
BBX 9 15 1 0
BITMAP
3F00
3F00
0000
0000
0000
E180
E180
E180
E180
E180
E180
E380
E780
7D80
7980
ENDCHAR
STARTCHAR 016C
ENCODING 364
SWIDTH 562 0
DWIDTH 12 0
BBX 10 19 1 0
BITMAP
3300
3F00
1E00
0000
E1C0
E1C0
E1C0
E1C0
E1C0
E1C0
E1C0
E1C0
E1C0
E1C0
E1C0
E180
E380
7F80
3E00
ENDCHAR
STARTCHAR 016D
ENCODING 365
SWIDTH 562 0
DWIDTH 12 0
BBX 9 16 1 0
BITMAP
3300
3300
3E00
1C00
0000
0000
E180
E180
E180
E180
E180
E180
E380
E780
7D80
7980
ENDCHAR
STARTCHAR 016E
ENCODING 366
SWIDTH 562 0
DWIDTH 12 0
BBX 10 20 1 0
BITMAP
0C00
1600
3200
1E00
0000
E1C0
E1C0
E1C0
E1C0
E1C0
E1C0
E1C0
E1C0
E1C0
E1C0
E1C0
E180
E380
7F80
3E00
ENDCHAR
STARTCHAR 016F
ENCODING 367
SWIDTH 562 0
DWIDTH 12 0
BBX 9 16 1 0
BITMAP
1C00
1200
3200
1C00
0000
0000
E180
E180
E180
E180
E180
E180
E380
E780
7D80
7980
ENDCHAR
STARTCHAR 0170
ENCODING 368
SWIDTH 562 0
DWIDTH 12 0
BBX 10 20 1 0
BITMAP
0840
1CC0
3380
6200
0000
E1C0
E1C0
E1C0
E1C0
E1C0
E1C0
E1C0
E1C0
E1C0
E1C0
E1C0
E180
E380
7F80
3E00
ENDCHAR
STARTCHAR 0171
ENCODING 369
SWIDTH 562 0
DWIDTH 12 0
BBX 10 17 1 0
BITMAP
0880
0CC0
1980
3300
1200
0000
0000
E180
E180
E180
E180
E180
E180
E380
E780
7D80
7980
ENDCHAR
STARTCHAR 0172
ENCODING 370
SWIDTH 562 0
DWIDTH 12 0
BBX 10 19 1 -4
BITMAP
E1C0
E1C0
E1C0
E1C0
E1C0
E1C0
E1C0
E1C0
E1C0
E1C0
E1C0
E180
E380
7F80
3E00
0C00
1800
1F00
0E00
ENDCHAR
STARTCHAR 0173
ENCODING 371
SWIDTH 562 0
DWIDTH 12 0
BBX 10 14 1 -4
BITMAP
E180
E180
E180
E180
E180
E180
E380
E780
7D80
7980
0300
0600
0780
03C0
ENDCHAR
STARTCHAR 0174
ENCODING 372
SWIDTH 562 0
DWIDTH 12 0
BBX 12 19 0 0
BITMAP
0600
1F80
3180
0000
C070
C060
C060
CE60
EE60
6E60
6F60
6F60
6B60
6B60
7BE0
7BC0
79C0
79C0
79C0
ENDCHAR
STARTCHAR 0175
ENCODING 373
SWIDTH 562 0
DWIDTH 12 0
BBX 11 16 0 0
BITMAP
0400
0F00
1B80
1100
0000
0000
E060
E060
EE60
6E60
6F60
6FE0
6BC0
6BC0
79C0
39C0
ENDCHAR
STARTCHAR 0176
ENCODING 374
SWIDTH 562 0
DWIDTH 12 0
BBX 11 19 0 0
BITMAP
0600
1F80
3980
0000
E060
60E0
70C0
31C0
3980
1B80
1F00
0F00
0F00
0E00
0E00
0E00
0E00
0E00
0E00
ENDCHAR
STARTCHAR 0177
ENCODING 375
SWIDTH 562 0
DWIDTH 12 0
BBX 11 20 0 -4
BITMAP
0400
0F00
1B80
1100
0000
0000
E0E0
70E0
70C0
31C0
3980
3980
1B80
1F00
0F00
0E00
0600
0C00
7C00
7800
ENDCHAR
STARTCHAR 0178
ENCODING 376
SWIDTH 562 0
DWIDTH 12 0
BBX 11 19 0 0
BITMAP
3980
39C0
3980
0000
E060
60E0
70C0
31C0
3980
1B80
1F00
0F00
0F00
0E00
0E00
0E00
0E00
0E00
0E00
ENDCHAR
STARTCHAR 0179
ENCODING 377
SWIDTH 562 0
DWIDTH 12 0
BBX 10 20 1 0
BITMAP
0100
0700
1F00
0800
0000
FFC0
FFC0
0380
0300
0700
0E00
0E00
1C00
1800
3800
3000
7000
E000
FFC0
FFC0
ENDCHAR
STARTCHAR 017A
ENCODING 378
SWIDTH 562 0
DWIDTH 12 0
BBX 9 16 1 0
BITMAP
0200
0700
0E00
0800
0000
0000
7F80
7F80
0700
0E00
0E00
1C00
3800
7000
FF80
FF80
ENDCHAR
STARTCHAR 017B
ENCODING 379
SWIDTH 562 0
DWIDTH 12 0
BBX 10 19 1 0
BITMAP
0C00
0C00
0C00
0000
FFC0
FFC0
0380
0300
0700
0E00
0E00
1C00
1800
3800
3000
7000
E000
FFC0
FFC0
ENDCHAR
STARTCHAR 017C
ENCODING 380
SWIDTH 562 0
DWIDTH 12 0
BBX 9 15 1 0
BITMAP
0C00
0E00
0C00
0000
0000
7F80
7F80
0700
0E00
0E00
1C00
3800
7000
FF80
FF80
ENDCHAR
STARTCHAR 017D
ENCODING 381
SWIDTH 562 0
DWIDTH 12 0
BBX 10 19 1 0
BITMAP
3300
3F00
0C00
0000
FFC0
FFC0
0380
0300
0700
0E00
0E00
1C00
1800
3800
3000
7000
E000
FFC0
FFC0
ENDCHAR
STARTCHAR 017E
ENCODING 382
SWIDTH 562 0
DWIDTH 12 0
BBX 9 16 1 0
BITMAP
2100
3300
1E00
0C00
0000
0000
7F80
7F80
0700
0E00
0E00
1C00
3800
7000
FF80
FF80
ENDCHAR
STARTCHAR 0192
ENCODING 402
SWIDTH 562 0
DWIDTH 12 0
BBX 11 16 0 -2
BITMAP
03E0
07E0
0600
0E00
0E00
3FC0
7FC0
0E00
0C00
0C00
0C00
0C00
1C00
1C00
F800
F000
ENDCHAR
STARTCHAR 01CD
ENCODING 461
SWIDTH 562 0
DWIDTH 12 0
BBX 11 19 0 0
BITMAP
1180
3F80
0600
0000
0F00
1F00
1B00
1B80
1B80
1980
3980
31C0
31C0
3FC0
7FC0
60C0
60E0
60E0
E060
ENDCHAR
STARTCHAR 01CE
ENCODING 462
SWIDTH 562 0
DWIDTH 12 0
BBX 9 16 1 0
BITMAP
2100
3300
1E00
0C00
0000
0000
7F00
7F80
0380
0180
3F80
FF80
E380
C780
FD80
7980
ENDCHAR
STARTCHAR 01CF
ENCODING 463
SWIDTH 562 0
DWIDTH 12 0
BBX 9 19 1 0
BITMAP
3300
7F00
0C00
0000
FF80
FF80
0C00
0C00
0C00
0C00
0C00
0C00
0C00
0C00
0C00
0C00
0C00
FF80
FF80
ENDCHAR
STARTCHAR 01D0
ENCODING 464
SWIDTH 562 0
DWIDTH 12 0
BBX 10 16 1 0
BITMAP
1100
3B80
0E00
0400
0000
0000
FE00
FE00
0E00
0E00
0E00
0E00
0E00
0E00
FFC0
FFC0
ENDCHAR
STARTCHAR 01D1
ENCODING 465
SWIDTH 562 0
DWIDTH 12 0
BBX 10 19 1 0
BITMAP
3300
7F00
0C00
0000
3E00
7F80
E380
E180
C1C0
C1C0
C1C0
C1C0
C1C0
C1C0
C1C0
E180
E380
7F00
3E00
ENDCHAR
STARTCHAR 01D2
ENCODING 466
SWIDTH 562 0
DWIDTH 12 0
BBX 10 16 1 0
BITMAP
2200
3700
1E00
0800
0000
0000
3F00
7F80
E380
E180
E1C0
E1C0
E180
E380
7F80
3E00
ENDCHAR
STARTCHAR 01D3
ENCODING 467
SWIDTH 562 0
DWIDTH 12 0
BBX 10 19 1 0
BITMAP
3300
7F00
0C00
0000
E1C0
E1C0
E1C0
E1C0
E1C0
E1C0
E1C0
E1C0
E1C0
E1C0
E1C0
E180
E380
7F80
3E00
ENDCHAR
STARTCHAR 01D4
ENCODING 468
SWIDTH 562 0
DWIDTH 12 0
BBX 9 16 1 0
BITMAP
2200
3700
1E00
0800
0000
0000
E180
E180
E180
E180
E180
E180
E380
E780
7D80
7980
ENDCHAR
STARTCHAR 01E2
ENCODING 482
SWIDTH 562 0
DWIDTH 12 0
BBX 11 19 0 0
BITMAP
0FC0
0FC0
0000
0000
1FE0
1FE0
1B00
1B00
3B00
3300
33E0
33E0
7300
7F00
7F00
6300
6300
E3E0
E3E0
ENDCHAR
STARTCHAR 01E3
ENCODING 483
SWIDTH 562 0
DWIDTH 12 0
BBX 11 15 0 0
BITMAP
1F80
1F80
0000
0000
0000
7BC0
7FE0
0E60
0660
3FE0
7FE0
E600
CE00
FFE0
73E0
ENDCHAR
STARTCHAR 01E6
ENCODING 486
SWIDTH 562 0
DWIDTH 12 0
BBX 10 19 1 0
BITMAP
3100
3F80
0C00
0000
1F80
7F80
7000
E000
C000
C000
C7C0
C7C0
C1C0
C1C0
C1C0
E1C0
E1C0
7FC0
3F80
ENDCHAR
STARTCHAR 01E7
ENCODING 487
SWIDTH 562 0
DWIDTH 12 0
BBX 10 20 1 -4
BITMAP
2200
7700
1C00
0800
0000
0000
3FC0
7FC0
E380
E180
E380
7F00
7E00
E000
7E00
7F80
C3C0
C1C0
FF80
7F00
ENDCHAR
STARTCHAR 01E8
ENCODING 488
SWIDTH 562 0
DWIDTH 12 0
BBX 10 19 1 0
BITMAP
3300
3F00
0C00
0000
E1C0
E380
E380
E700
E600
EE00
FC00
FC00
FC00
EE00
E600
E700
E380
E380
E1C0
ENDCHAR
STARTCHAR 01E9
ENCODING 489
SWIDTH 562 0
DWIDTH 12 0
BBX 10 19 1 0
BITMAP
3300
3F00
0C00
0000
E000
E000
E000
E000
E000
E1C0
E300
E700
EE00
FC00
FC00
EE00
E700
E380
E1C0
ENDCHAR
STARTCHAR 01F4
ENCODING 500
SWIDTH 562 0
DWIDTH 12 0
BBX 10 20 1 0
BITMAP
0100
0700
0F80
0800
0000
1F80
7F80
7000
E000
C000
C000
C7C0
C7C0
C1C0
C1C0
C1C0
E1C0
E1C0
7FC0
3F80
ENDCHAR
STARTCHAR 01F5
ENCODING 501
SWIDTH 562 0
DWIDTH 12 0
BBX 10 20 1 -4
BITMAP
0200
0700
0C00
1800
0000
0000
3FC0
7FC0
E380
E180
E380
7F00
7E00
E000
7E00
7F80
C3C0
C1C0
FF80
7F00
ENDCHAR
STARTCHAR 01F8
ENCODING 504
SWIDTH 562 0
DWIDTH 12 0
BBX 10 20 1 0
BITMAP
2000
3800
7C00
0C00
0000
E1C0
F1C0
F1C0
F9C0
D9C0
D9C0
DDC0
CDC0
CDC0
CFC0
C7C0
C6C0
C7C0
C3C0
C3C0
ENDCHAR
STARTCHAR 01F9
ENCODING 505
SWIDTH 562 0
DWIDTH 12 0
BBX 9 16 1 0
BITMAP
1000
3800
1C00
0800
0000
0000
CF00
FF80
F380
E180
E180
E180
E180
E180
E180
E180
ENDCHAR
STARTCHAR 01FC
ENCODING 508
SWIDTH 562 0
DWIDTH 12 0
BBX 11 20 0 0
BITMAP
0040
01C0
07C0
0200
0000
1FE0
1FE0
1B00
1B00
3B00
3300
33E0
33E0
7300
7F00
7F00
6300
6300
E3E0
E3E0
ENDCHAR
STARTCHAR 01FD
ENCODING 509
SWIDTH 562 0
DWIDTH 12 0
BBX 11 16 0 0
BITMAP
0100
0380
0700
0600
0000
0000
7BC0
7FE0
0E60
0660
3FE0
7FE0
E600
CE00
FFE0
73E0
ENDCHAR
STARTCHAR 01FE
ENCODING 510
SWIDTH 562 0
DWIDTH 12 0
BBX 10 22 1 -2
BITMAP
0400
0E00
1C00
1180
0180
3F80
7F80
E380
C7C0
C7C0
C6C0
CCC0
CCC0
D8C0
D8C0
D9C0
F180
F380
7F00
7E00
6000
C000
ENDCHAR
STARTCHAR 01FF
ENCODING 511
SWIDTH 562 0
DWIDTH 12 0
BBX 10 18 1 -2
BITMAP
0400
0E00
1C00
0800
0100
0380
3F00
7B80
E780
E5C0
CDC0
C9C0
D980
F380
7F80
7E00
6000
6000
ENDCHAR
STARTCHAR 0218
ENCODING 536
SWIDTH 562 0
DWIDTH 12 0
BBX 10 19 1 -4
BITMAP
3F80
7F80
E000
C000
E000
F000
7C00
3F00
0F80
0380
01C0
01C0
0380
FF80
FE00
0000
0C00
3C00
7000
ENDCHAR
STARTCHAR 0219
ENCODING 537
SWIDTH 562 0
DWIDTH 12 0
BBX 8 14 2 -4
BITMAP
7E
FE
C0
E0
FC
3F
07
03
FF
FE
00
18
78
E0
ENDCHAR
STARTCHAR 021A
ENCODING 538
SWIDTH 562 0
DWIDTH 12 0
BBX 11 19 0 -4
BITMAP
FFE0
FFE0
0600
0600
0600
0600
0600
0600
0600
0600
0600
0600
0600
0600
0600
0000
0600
1E00
3800
ENDCHAR
STARTCHAR 021B
ENCODING 539
SWIDTH 562 0
DWIDTH 12 0
BBX 10 18 1 -4
BITMAP
3800
3800
3800
3800
FF80
FF80
3800
3800
3800
3800
3800
1800
1F80
0FC0
0000
0E00
1E00
3800
ENDCHAR
STARTCHAR 021E
ENCODING 542
SWIDTH 562 0
DWIDTH 12 0
BBX 9 19 1 0
BITMAP
3300
7F00
0C00
0000
E180
E180
E180
E180
E180
E180
FF80
FF80
E180
E180
E180
E180
E180
E180
E180
ENDCHAR
STARTCHAR 021F
ENCODING 543
SWIDTH 562 0
DWIDTH 12 0
BBX 9 19 1 0
BITMAP
2300
7F00
0C00
0000
E000
E000
E000
E000
E000
EF00
FF80
F380
E180
E180
E180
E180
E180
E180
E180
ENDCHAR
STARTCHAR 0226
ENCODING 550
SWIDTH 562 0
DWIDTH 12 0
BBX 11 19 0 0
BITMAP
0600
0E00
0600
0000
0F00
1F00
1B00
1B80
1B80
1980
3980
31C0
31C0
3FC0
7FC0
60C0
60E0
60E0
E060
ENDCHAR
STARTCHAR 0227
ENCODING 551
SWIDTH 562 0
DWIDTH 12 0
BBX 9 15 1 0
BITMAP
0C00
0C00
0C00
0000
0000
7F00
7F80
0380
0180
3F80
FF80
E380
C780
FD80
7980
ENDCHAR
STARTCHAR 022E
ENCODING 558
SWIDTH 562 0
DWIDTH 12 0
BBX 10 19 1 0
BITMAP
0C00
1C00
0C00
0000
3E00
7F80
E380
E180
C1C0
C1C0
C1C0
C1C0
C1C0
C1C0
C1C0
E180
E380
7F00
3E00
ENDCHAR
STARTCHAR 022F
ENCODING 559
SWIDTH 562 0
DWIDTH 12 0
BBX 10 15 1 0
BITMAP
1C00
1C00
1C00
0000
0000
3F00
7F80
E380
E180
E1C0
E1C0
E180
E380
7F80
3E00
ENDCHAR
STARTCHAR 0232
ENCODING 562
SWIDTH 562 0
DWIDTH 12 0
BBX 11 19 0 0
BITMAP
3F80
3F80
0000
0000
E060
60E0
70C0
31C0
3980
1B80
1F00
0F00
0F00
0E00
0E00
0E00
0E00
0E00
0E00
ENDCHAR
STARTCHAR 0233
ENCODING 563
SWIDTH 562 0
DWIDTH 12 0
BBX 11 19 0 -4
BITMAP
1F80
1F80
0000
0000
0000
E0E0
70E0
70C0
31C0
3980
3980
1B80
1F00
0F00
0E00
0600
0C00
7C00
7800
ENDCHAR
STARTCHAR 0237
ENCODING 567
SWIDTH 562 0
DWIDTH 12 0
BBX 8 14 1 -4
BITMAP
7F
7F
07
07
07
07
07
07
07
07
07
07
FE
FC
ENDCHAR
STARTCHAR 02BC
ENCODING 700
SWIDTH 562 0
DWIDTH 12 0
BBX 3 5 4 11
BITMAP
60
60
60
40
C0
ENDCHAR
STARTCHAR 02C6
ENCODING 710
SWIDTH 562 0
DWIDTH 12 0
BBX 6 4 3 12
BITMAP
20
78
DC
88
ENDCHAR
STARTCHAR 02C7
ENCODING 711
SWIDTH 562 0
DWIDTH 12 0
BBX 6 4 3 12
BITMAP
88
DC
78
20
ENDCHAR
STARTCHAR 02D8
ENCODING 728
SWIDTH 562 0
DWIDTH 12 0
BBX 6 4 3 12
BITMAP
CC
CC
F8
70
ENDCHAR
STARTCHAR 02D9
ENCODING 729
SWIDTH 562 0
DWIDTH 12 0
BBX 3 3 4 12
BITMAP
60
E0
60
ENDCHAR
STARTCHAR 02DA
ENCODING 730
SWIDTH 562 0
DWIDTH 12 0
BBX 5 4 3 12
BITMAP
70
C8
C8
70
ENDCHAR
STARTCHAR 02DB
ENCODING 731
SWIDTH 562 0
DWIDTH 12 0
BBX 4 5 4 -5
BITMAP
70
C0
C0
F0
60
ENDCHAR
STARTCHAR 02DC
ENCODING 732
SWIDTH 562 0
DWIDTH 12 0
BBX 7 3 2 12
BITMAP
72
7E
CC
ENDCHAR
STARTCHAR 02DD
ENCODING 733
SWIDTH 562 0
DWIDTH 12 0
BBX 8 5 2 12
BITMAP
22
77
6E
CC
98
ENDCHAR
STARTCHAR 0312
ENCODING 786
SWIDTH 562 0
DWIDTH 12 0
BBX 5 3 3 12
BITMAP
38
F0
E0
ENDCHAR
STARTCHAR 0315
ENCODING 789
SWIDTH 562 0
DWIDTH 12 0
BBX 3 5 4 12
BITMAP
60
60
60
40
C0
ENDCHAR
STARTCHAR 0326
ENCODING 806
SWIDTH 562 0
DWIDTH 12 0
BBX 5 3 3 -4
BITMAP
18
78
E0
ENDCHAR
STARTCHAR 0394
ENCODING 916
SWIDTH 562 0
DWIDTH 12 0
BBX 11 15 0 0
BITMAP
0F00
0F00
1B00
1B80
1B80
1980
3980
31C0
31C0
30C0
70C0
60C0
60E0
7FE0
FFE0
ENDCHAR
STARTCHAR 03A9
ENCODING 937
SWIDTH 562 0
DWIDTH 12 0
BBX 11 15 0 0
BITMAP
1F00
3FC0
71C0
70E0
60E0
60E0
60E0
60E0
60E0
60E0
70C0
70C0
3980
F9E0
F9E0
ENDCHAR
STARTCHAR 03BC
ENCODING 956
SWIDTH 562 0
DWIDTH 12 0
BBX 9 14 1 -4
BITMAP
E180
E180
E180
E180
E180
E180
E380
E780
FF80
FD80
E000
E000
E000
E000
ENDCHAR
STARTCHAR 03C0
ENCODING 960
SWIDTH 562 0
DWIDTH 12 0
BBX 10 10 1 0
BITMAP
FFC0
FFC0
6380
6380
6380
6380
6380
6380
6380
6380
ENDCHAR
STARTCHAR 1E9E
ENCODING 7838
SWIDTH 562 0
DWIDTH 12 0
BBX 10 15 1 0
BITMAP
FF80
FF80
E380
E300
E700
E600
EF00
EF80
E3C0
E1C0
E1C0
E1C0
E1C0
EF80
EF00
ENDCHAR
STARTCHAR 2013
ENCODING 8211
SWIDTH 562 0
DWIDTH 12 0
BBX 10 2 1 5
BITMAP
FFC0
FFC0
ENDCHAR
STARTCHAR 2014
ENCODING 8212
SWIDTH 562 0
DWIDTH 12 0
BBX 12 2 0 5
BITMAP
FFF0
FFF0
ENDCHAR
STARTCHAR 2015
ENCODING 8213
SWIDTH 562 0
DWIDTH 12 0
BBX 12 2 0 5
BITMAP
FFF0
FFF0
ENDCHAR
STARTCHAR 2018
ENCODING 8216
SWIDTH 562 0
DWIDTH 12 0
BBX 5 7 4 9
BITMAP
08
18
30
60
E0
E0
E0
ENDCHAR
STARTCHAR 2019
ENCODING 8217
SWIDTH 562 0
DWIDTH 12 0
BBX 5 7 3 9
BITMAP
38
38
38
30
70
C0
80
ENDCHAR
STARTCHAR 201A
ENCODING 8218
SWIDTH 562 0
DWIDTH 12 0
BBX 5 7 2 -4
BITMAP
38
38
38
38
70
E0
80
ENDCHAR
STARTCHAR 201C
ENCODING 8220
SWIDTH 562 0
DWIDTH 12 0
BBX 9 7 2 10
BITMAP
1080
3180
6300
C600
CE00
CE00
C600
ENDCHAR
STARTCHAR 201D
ENCODING 8221
SWIDTH 562 0
DWIDTH 12 0
BBX 9 7 1 9
BITMAP
3180
3980
3980
3180
6300
C600
8400
ENDCHAR
STARTCHAR 201E
ENCODING 8222
SWIDTH 562 0
DWIDTH 12 0
BBX 10 7 0 -4
BITMAP
39C0
39C0
39C0
3180
3300
6200
C400
ENDCHAR
STARTCHAR 2020
ENCODING 8224
SWIDTH 562 0
DWIDTH 12 0
BBX 9 14 1 0
BITMAP
0C00
0C00
0C00
0C00
FF80
FF80
0C00
0C00
0C00
0C00
0C00
0C00
0C00
0C00
ENDCHAR
STARTCHAR 2021
ENCODING 8225
SWIDTH 562 0
DWIDTH 12 0
BBX 9 14 1 0
BITMAP
0C00
0C00
0C00
FF80
FF80
0C00
0C00
0C00
0C00
FF80
FF80
0C00
0C00
0C00
ENDCHAR
STARTCHAR 2022
ENCODING 8226
SWIDTH 562 0
DWIDTH 12 0
BBX 5 5 3 5
BITMAP
78
78
F8
78
78
ENDCHAR
STARTCHAR 2026
ENCODING 8230
SWIDTH 562 0
DWIDTH 12 0
BBX 10 3 1 0
BITMAP
CDC0
CDC0
CDC0
ENDCHAR
STARTCHAR 2030
ENCODING 8240
SWIDTH 562 0
DWIDTH 12 0
BBX 11 14 0 0
BITMAP
7800
4800
C800
4800
4800
78E0
1F80
E000
79C0
4B60
4B20
CB20
4B60
79C0
ENDCHAR
STARTCHAR 2039
ENCODING 8249
SWIDTH 562 0
DWIDTH 12 0
BBX 7 10 2 0
BITMAP
04
0E
1C
38
F0
F0
38
1C
0E
04
ENDCHAR
STARTCHAR 203A
ENCODING 8250
SWIDTH 562 0
DWIDTH 12 0
BBX 8 10 2 0
BITMAP
60
F0
38
1C
0E
0F
1C
38
70
E0
ENDCHAR
STARTCHAR 2044
ENCODING 8260
SWIDTH 562 0
DWIDTH 12 0
BBX 9 14 1 0
BITMAP
0080
0180
0300
0200
0600
0400
0C00
0800
1800
3000
2000
6000
4000
C000
ENDCHAR
STARTCHAR 2070
ENCODING 8304
SWIDTH 562 0
DWIDTH 12 0
BBX 7 7 2 7
BITMAP
3C
4E
CA
D2
D2
66
7C
ENDCHAR
STARTCHAR 2074
ENCODING 8308
SWIDTH 562 0
DWIDTH 12 0
BBX 7 7 2 7
BITMAP
1C
1C
3C
6C
4C
FE
0C
ENDCHAR
STARTCHAR 2075
ENCODING 8309
SWIDTH 562 0
DWIDTH 12 0
BBX 6 7 3 7
BITMAP
F8
C0
C0
F8
0C
1C
F8
ENDCHAR
STARTCHAR 2076
ENCODING 8310
SWIDTH 562 0
DWIDTH 12 0
BBX 6 7 3 7
BITMAP
78
C0
C0
F8
8C
CC
78
ENDCHAR
STARTCHAR 2077
ENCODING 8311
SWIDTH 562 0
DWIDTH 12 0
BBX 6 7 3 7
BITMAP
FC
0C
18
30
30
60
E0
ENDCHAR
STARTCHAR 2078
ENCODING 8312
SWIDTH 562 0
DWIDTH 12 0
BBX 6 7 3 7
BITMAP
78
CC
CC
70
CC
CC
F8
ENDCHAR
STARTCHAR 2079
ENCODING 8313
SWIDTH 562 0
DWIDTH 12 0
BBX 6 7 3 7
BITMAP
78
CC
CC
FC
0C
0C
F0
ENDCHAR
STARTCHAR 2080
ENCODING 8320
SWIDTH 562 0
DWIDTH 12 0
BBX 7 7 2 0
BITMAP
3C
4E
CA
D2
D2
66
7C
ENDCHAR
STARTCHAR 2081
ENCODING 8321
SWIDTH 562 0
DWIDTH 12 0
BBX 6 7 3 0
BITMAP
30
F0
B0
30
30
30
FC
ENDCHAR
STARTCHAR 2082
ENCODING 8322
SWIDTH 562 0
DWIDTH 12 0
BBX 6 7 3 0
BITMAP
F8
1C
1C
18
70
E0
FC
ENDCHAR
STARTCHAR 2083
ENCODING 8323
SWIDTH 562 0
DWIDTH 12 0
BBX 6 7 3 0
BITMAP
F8
1C
18
70
0C
0C
F8
ENDCHAR
STARTCHAR 2084
ENCODING 8324
SWIDTH 562 0
DWIDTH 12 0
BBX 7 7 2 0
BITMAP
1C
1C
3C
6C
4C
FE
0C
ENDCHAR
STARTCHAR 2085
ENCODING 8325
SWIDTH 562 0
DWIDTH 12 0
BBX 6 7 3 0
BITMAP
F8
C0
C0
F8
0C
1C
F8
ENDCHAR
STARTCHAR 2086
ENCODING 8326
SWIDTH 562 0
DWIDTH 12 0
BBX 6 7 3 0
BITMAP
78
C0
C0
F8
8C
CC
78
ENDCHAR
STARTCHAR 2087
ENCODING 8327
SWIDTH 562 0
DWIDTH 12 0
BBX 6 7 3 0
BITMAP
FC
0C
18
30
30
60
E0
ENDCHAR
STARTCHAR 2088
ENCODING 8328
SWIDTH 562 0
DWIDTH 12 0
BBX 6 7 3 0
BITMAP
78
CC
CC
70
CC
CC
F8
ENDCHAR
STARTCHAR 2089
ENCODING 8329
SWIDTH 562 0
DWIDTH 12 0
BBX 6 7 3 0
BITMAP
78
CC
CC
FC
0C
0C
F0
ENDCHAR
STARTCHAR 20AC
ENCODING 8364
SWIDTH 562 0
DWIDTH 12 0
BBX 10 14 1 0
BITMAP
0FC0
3FC0
3800
7000
FF00
FF00
7000
FF00
FF00
7000
3000
3800
1FC0
0FC0
ENDCHAR
STARTCHAR 2116
ENCODING 8470
SWIDTH 562 0
DWIDTH 12 0
BBX 11 14 0 0
BITMAP
E4E0
E5A0
E5A0
E5A0
F5A0
F5A0
F4E0
D400
D5E0
DC00
DC00
CC00
CC00
CC00
ENDCHAR
STARTCHAR 2117
ENCODING 8471
SWIDTH 562 0
DWIDTH 12 0
BBX 11 14 0 0
BITMAP
1F00
30C0
6040
5F60
D9E0
D9A0
D920
DF20
D820
D860
5860
6040
30C0
1F00
ENDCHAR
STARTCHAR 2120
ENCODING 8480
SWIDTH 562 0
DWIDTH 12 0
BBX 11 8 0 7
BITMAP
7660
C660
C6E0
67A0
35A0
15A0
1420
E420
ENDCHAR
STARTCHAR 2122
ENCODING 8482
SWIDTH 562 0
DWIDTH 12 0
BBX 11 8 0 7
BITMAP
F660
2660
26E0
27A0
25A0
25A0
2420
2420
ENDCHAR
STARTCHAR 2126
ENCODING 8486
SWIDTH 562 0
DWIDTH 12 0
BBX 11 15 0 0
BITMAP
1F00
3FC0
71C0
70E0
60E0
60E0
60E0
60E0
60E0
60E0
70C0
70C0
3980
F9E0
F9E0
ENDCHAR
STARTCHAR 2153
ENCODING 8531
SWIDTH 562 0
DWIDTH 12 0
BBX 10 14 1 0
BITMAP
6080
E180
E300
6200
6600
6400
6C00
0B80
18C0
30C0
2180
60C0
40C0
C380
ENDCHAR
STARTCHAR 2154
ENCODING 8532
SWIDTH 562 0
DWIDTH 12 0
BBX 11 14 0 0
BITMAP
7040
30C0
3880
3180
7300
6200
FE00
05C0
0C60
0860
18C0
3060
2060
61C0
ENDCHAR
STARTCHAR 2155
ENCODING 8533
SWIDTH 562 0
DWIDTH 12 0
BBX 11 14 0 0
BITMAP
30C0
7080
F180
3100
3300
3200
3600
0DE0
0980
1980
11E0
3060
2060
61C0
ENDCHAR
STARTCHAR 2156
ENCODING 8534
SWIDTH 562 0
DWIDTH 12 0
BBX 11 14 0 0
BITMAP
7040
30C0
3880
3180
7300
6200
FE00
05E0
0D80
0980
19E0
3060
2060
61C0
ENDCHAR
STARTCHAR 2157
ENCODING 8535
SWIDTH 562 0
DWIDTH 12 0
BBX 11 14 0 0
BITMAP
70C0
1080
3180
6100
1300
1A00
7600
8DE0
0980
1980
11E0
3060
2060
61C0
ENDCHAR
STARTCHAR 2158
ENCODING 8536
SWIDTH 562 0
DWIDTH 12 0
BBX 11 14 0 0
BITMAP
3840
38C0
5880
5980
F900
1B00
0200
07E0
0D80
0980
19E0
1060
3060
21C0
ENDCHAR
STARTCHAR 2159
ENCODING 8537
SWIDTH 562 0
DWIDTH 12 0
BBX 11 14 0 0
BITMAP
3040
70C0
F180
3100
3300
3200
3600
05E0
0D00
1B00
13E0
3360
2160
61C0
ENDCHAR
STARTCHAR 215A
ENCODING 8538
SWIDTH 562 0
DWIDTH 12 0
BBX 11 14 0 0
BITMAP
7040
40C0
4180
7100
1B00
1A00
F600
04E0
0D00
1900
13E0
3360
2160
61C0
ENDCHAR
STARTCHAR 215B
ENCODING 8539
SWIDTH 562 0
DWIDTH 12 0
BBX 11 14 0 0
BITMAP
30C0
7080
F180
3100
3300
3200
3600
0DC0
0960
1960
11C0
3360
2360
61C0
ENDCHAR
STARTCHAR 215C
ENCODING 8540
SWIDTH 562 0
DWIDTH 12 0
BBX 11 14 0 0
BITMAP
70C0
1080
3180
6100
1300
1A00
7600
8DE0
0960
1960
10C0
3160
2320
61E0
ENDCHAR
STARTCHAR 215D
ENCODING 8541
SWIDTH 562 0
DWIDTH 12 0
BBX 11 14 0 0
BITMAP
7040
40C0
4180
7100
1B00
1A00
F600
05E0
0D60
1960
10C0
3160
2320
61E0
ENDCHAR
STARTCHAR 215E
ENCODING 8542
SWIDTH 562 0
DWIDTH 12 0
BBX 11 14 0 0
BITMAP
F880
19C0
1100
3300
3200
2600
6400
0DE0
1960
1160
30C0
2160
6320
41E0
ENDCHAR
STARTCHAR 2190
ENCODING 8592
SWIDTH 562 0
DWIDTH 12 0
BBX 11 12 0 1
BITMAP
0400
0E00
1C00
3800
7000
7FE0
FFE0
7000
3800
1C00
0E00
0400
ENDCHAR
STARTCHAR 2191
ENCODING 8593
SWIDTH 562 0
DWIDTH 12 0
BBX 11 13 0 1
BITMAP
0400
0E00
0F00
1F80
37C0
66E0
C660
0600
0600
0600
0600
0600
0600
ENDCHAR
STARTCHAR 2192
ENCODING 8594
SWIDTH 562 0
DWIDTH 12 0
BBX 11 12 0 1
BITMAP
0400
0E00
0300
0380
01C0
FFE0
FFE0
01C0
0180
0300
0600
0C00
ENDCHAR
STARTCHAR 2193
ENCODING 8595
SWIDTH 562 0
DWIDTH 12 0
BBX 11 13 0 1
BITMAP
0600
0600
0600
0600
0600
0600
4660
E6E0
37C0
1F80
0F00
0E00
0400
ENDCHAR
STARTCHAR 2194
ENCODING 8596
SWIDTH 562 0
DWIDTH 12 0
BBX 11 10 0 2
BITMAP
1080
31C0
70C0
60E0
FFE0
FFE0
6060
70C0
31C0
1880
ENDCHAR
STARTCHAR 2195
ENCODING 8597
SWIDTH 562 0
DWIDTH 12 0
BBX 10 17 1 -1
BITMAP
0800
1C00
3E00
7F00
EF80
CCC0
0C00
0C00
0C00
0C00
0C00
CC80
EDC0
7F00
3E00
1C00
0800
ENDCHAR
STARTCHAR 2196
ENCODING 8598
SWIDTH 562 0
DWIDTH 12 0
BBX 10 10 1 2
BITMAP
FF00
FF00
F000
F800
DC00
CE00
C700
C380
01C0
0080
ENDCHAR
STARTCHAR 2197
ENCODING 8599
SWIDTH 562 0
DWIDTH 12 0
BBX 11 10 0 2
BITMAP
3FE0
3FE0
01E0
03E0
0760
0E60
1C60
3860
7000
C000
ENDCHAR
STARTCHAR 2198
ENCODING 8600
SWIDTH 562 0
DWIDTH 12 0
BBX 11 10 0 2
BITMAP
4000
F000
3860
1C60
0E60
0760
03E0
01E0
3FE0
3FE0
ENDCHAR
STARTCHAR 2199
ENCODING 8601
SWIDTH 562 0
DWIDTH 12 0
BBX 10 10 1 2
BITMAP
0080
01C0
C380
C700
CE00
DC00
F800
F000
FF00
FF00
ENDCHAR
STARTCHAR 2202
ENCODING 8706
SWIDTH 562 0
DWIDTH 12 0
BBX 9 15 1 0
BITMAP
1C00
1E00
0700
0300
0380
3F80
7F80
6180
E180
E180
E180
E180
E380
7F00
3E00
ENDCHAR
STARTCHAR 2206
ENCODING 8710
SWIDTH 562 0
DWIDTH 12 0
BBX 11 15 0 0
BITMAP
0F00
0F00
1B00
1B80
1B80
1980
3980
31C0
31C0
30C0
70C0
60C0
60E0
7FE0
FFE0
ENDCHAR
STARTCHAR 220F
ENCODING 8719
SWIDTH 562 0
DWIDTH 12 0
BBX 11 19 0 -4
BITMAP
FFE0
FFE0
31C0
31C0
31C0
31C0
31C0
31C0
31C0
31C0
31C0
31C0
31C0
31C0
31C0
31C0
31C0
31C0
31C0
ENDCHAR
STARTCHAR 2211
ENCODING 8721
SWIDTH 562 0
DWIDTH 12 0
BBX 10 19 1 -4
BITMAP
FF80
FF80
E000
7000
3800
3800
1C00
0E00
0E00
0E00
1C00
1C00
3800
3800
7000
6000
E000
FFC0
FFC0
ENDCHAR
STARTCHAR 2212
ENCODING 8722
SWIDTH 562 0
DWIDTH 12 0
BBX 10 2 1 5
BITMAP
FFC0
FFC0
ENDCHAR
STARTCHAR 221A
ENCODING 8730
SWIDTH 562 0
DWIDTH 12 0
BBX 10 15 1 0
BITMAP
00C0
01C0
0180
0180
0180
E380
E300
6300
6300
7700
3700
3600
3600
3E00
1E00
ENDCHAR
STARTCHAR 221E
ENCODING 8734
SWIDTH 562 0
DWIDTH 12 0
BBX 11 7 0 2
BITMAP
79C0
7FE0
CF60
C660
CF60
7BE0
71C0
ENDCHAR
STARTCHAR 222B
ENCODING 8747
SWIDTH 562 0
DWIDTH 12 0
BBX 10 19 1 -4
BITMAP
07C0
0FC0
1C00
1C00
1C00
1C00
1C00
1C00
1C00
1C00
1C00
1C00
1C00
1C00
1C00
1C00
1C00
F800
F000
ENDCHAR
STARTCHAR 2248
ENCODING 8776
SWIDTH 562 0
DWIDTH 12 0
BBX 10 7 1 3
BITMAP
7880
FFC0
8780
0000
7880
FFC0
8780
ENDCHAR
STARTCHAR 2260
ENCODING 8800
SWIDTH 562 0
DWIDTH 12 0
BBX 9 12 1 0
BITMAP
0100
0300
0300
FF80
FF80
0C00
1800
FF80
FF80
3000
6000
2000
ENDCHAR
STARTCHAR 2264
ENCODING 8804
SWIDTH 562 0
DWIDTH 12 0
BBX 9 12 1 0
BITMAP
0080
0780
1F00
F800
C000
F800
1F00
0780
0080
0000
FF80
FF80
ENDCHAR
STARTCHAR 2265
ENCODING 8805
SWIDTH 562 0
DWIDTH 12 0
BBX 9 12 1 0
BITMAP
8000
F000
3E00
0F80
0180
0F80
3E00
F000
8000
0000
FF80
FF80
ENDCHAR
STARTCHAR 25AE
ENCODING 9646
SWIDTH 562 0
DWIDTH 12 0
BBX 12 27 0 -5
BITMAP
FFF0
FFF0
FFF0
FFF0
FFF0
FFF0
FFF0
FFF0
FFF0
FFF0
FFF0
FFF0
FFF0
FFF0
FFF0
FFF0
FFF0
FFF0
FFF0
FFF0
FFF0
FFF0
FFF0
FFF0
FFF0
FFF0
FFF0
ENDCHAR
STARTCHAR 25CA
ENCODING 9674
SWIDTH 562 0
DWIDTH 12 0
BBX 10 15 1 0
BITMAP
1E00
3E00
3F00
3700
7300
6380
E180
C1C0
E180
6380
7300
3700
3F00
3E00
1E00
ENDCHAR
STARTCHAR F8FF
ENCODING 63743
SWIDTH 562 0
DWIDTH 12 0
BBX 7 7 2 2
BITMAP
3C
66
EE
E6
EE
5E
3C
ENDCHAR
ENDFONT
